/* XPM */
static char *_71f5004bca94e63dd9ccbbd246e17e1m4AqgEnZOB4lgmp4[] = {
/* columns rows colors chars-per-pixel */
"64 64 220 2 ",
"   c None",
".  c #1E1A07",
"X  c #231F0A",
"o  c #2E2407",
"O  c #25220C",
"+  c #2E2509",
"@  c #2C280F",
"#  c #322606",
"$  c #352907",
"%  c #3C2B05",
"&  c #32260A",
"*  c #34290A",
"=  c #3A2C09",
"-  c #3E2700",
";  c #3E3008",
":  c #2E2A11",
">  c #322D12",
",  c #3A2D14",
"<  c #3C2511",
"1  c #353115",
"2  c #3C3515",
"3  c #3E3916",
"4  c #3E3919",
"5  c #373319",
"6  c #3E2D28",
"7  c #3F3B21",
"8  c #432C03",
"9  c #432D0A",
"0  c #463205",
"q  c #4B3403",
"w  c #4D3A04",
"e  c #423309",
"r  c #4A350B",
"t  c #473805",
"y  c #513503",
"u  c #543C04",
"i  c #5A3C04",
"p  c #46231A",
"a  c #49241E",
"s  c #462718",
"d  c #423A16",
"f  c #423D1A",
"g  c #463719",
"h  c #4D2A23",
"j  c #512D26",
"k  c #493628",
"l  c #53342C",
"z  c #58382A",
"x  c #4E3434",
"c  c #533735",
"v  c #563938",
"b  c #5B3E3B",
"n  c #573B35",
"m  c #564206",
"M  c #5B4404",
"N  c #5D4906",
"B  c #564108",
"V  c #45411B",
"C  c #4B441C",
"Z  c #494217",
"A  c #52461A",
"S  c #564B19",
"D  c #594D1B",
"F  c #524112",
"G  c #5B511D",
"H  c #634B04",
"J  c #604303",
"K  c #6A5304",
"L  c #675206",
"P  c #745C04",
"I  c #705602",
"U  c #7C6504",
"Y  c #7C6906",
"T  c #786506",
"R  c #4E4821",
"E  c #494322",
"W  c #524B25",
"Q  c #544E29",
"!  c #574827",
"~  c #5D5224",
"^  c #5B542C",
"/  c #57512A",
"(  c #5E5835",
")  c #5B4139",
"_  c #625625",
"`  c #61562C",
"'  c #635B2E",
"]  c #675E2B",
"[  c #63493B",
"{  c #655D32",
"}  c #695B37",
"|  c #6A612D",
" . c #6D6334",
".. c #6D653B",
"X. c #676133",
"o. c #746A3C",
"O. c #736839",
"+. c #7A703E",
"@. c #5A4340",
"#. c #674845",
"$. c #744D4A",
"%. c #7A564C",
"&. c #7C5451",
"*. c #7F5C57",
"=. c #6C554D",
"-. c #746C43",
";. c #7B6D46",
":. c #77674C",
">. c #7C7345",
",. c #7D744A",
"<. c #746B52",
"1. c #7A6E56",
"2. c #796B5C",
"3. c #7D735B",
"4. c #836B04",
"5. c #8B7304",
"6. c #927B06",
"7. c #88593C",
"8. c #897234",
"9. c #8D763A",
"0. c #886F33",
"q. c #894E45",
"w. c #8A5446",
"e. c #8A5449",
"r. c #8A5A4D",
"t. c #865749",
"y. c #855954",
"u. c #8C5D53",
"i. c #855E5A",
"p. c #8D5E5A",
"a. c #8B6347",
"s. c #817646",
"d. c #82754A",
"f. c #857B4C",
"g. c #897D4C",
"h. c #877844",
"j. c #8C6255",
"k. c #8C645D",
"l. c #87665B",
"z. c #94635C",
"x. c #98665F",
"c. c #93665A",
"v. c #847B52",
"b. c #8C7C53",
"n. c #80735C",
"m. c #867A5D",
"M. c #97755B",
"N. c #8F6A63",
"B. c #936B64",
"V. c #986965",
"C. c #847B64",
"Z. c #867E68",
"A. c #887764",
"S. c #957969",
"D. c #8B7D72",
"F. c #A2766A",
"G. c #AF7975",
"H. c #8D8253",
"J. c #8D845A",
"K. c #928454",
"L. c #91865A",
"P. c #958A5C",
"I. c #998C5D",
"U. c #948B57",
"Y. c #8A826B",
"T. c #8B8362",
"R. c #9A8E63",
"E. c #948B67",
"W. c #9D9363",
"Q. c #9E926B",
"!. c #968C7C",
"~. c #9E8B7C",
"^. c #968774",
"/. c #9B927D",
"(. c #9C9277",
"). c #8F8670",
"_. c #A2976A",
"`. c #A49A6C",
"'. c #A5996A",
"]. c #A68C7B",
"[. c #B4887B",
"{. c #A69779",
"}. c #B6967F",
"|. c #ACA172",
" X c #B5AA7B",
".X c #B9AD7E",
"XX c #B2A577",
"oX c #9D9583",
"OX c #9F9885",
"+X c #A29585",
"@X c #A29A86",
"#X c #A49C8C",
"$X c #A99F89",
"%X c #B39A85",
"&X c #A69F91",
"*X c #ABA38B",
"=X c #B8A988",
"-X c #BDB184",
";X c #A7A092",
":X c #AAA293",
">X c #AFA898",
",X c #B4AA94",
"<X c #B6AD9B",
"1X c #B6AB96",
"2X c #BBB29C",
"3X c #BCB4A2",
"4X c #C9BD8E",
"5X c #C3B687",
"6X c #C2B79D",
"7X c #C5BCA4",
"8X c #C7BEA7",
"9X c #D0BBA3",
"0X c #D6C99A",
"qX c #CCC2AB",
"wX c #CBC1A5",
"eX c #D4C7AD",
"rX c #DACDB4",
"tX c #D3C9B2",
"yX c #DCD3B8",
"uX c #E5D6A7",
/* pixels */
"                                                                                                                                ",
"                                                                      z.#.x                                                     ",
"                                                    [ b             p.p.*.;XD.                                                  ",
"                                                  x $.#.6         $.&.#.!.;X;X                                                  ",
"                                                  #.%.N.i.  y.%.V.k.b @.yX2X                                                    ",
"                                                k k.i.l.v V.k.i.B.i.  :XyX                                                      ",
"                                              @Xk N.i.) k G.&.c       8XqX                                                      ",
"                                              eX#.l.k.6 &.c v     oX#X<X;X                                                      ",
"                                          2.$XyX].B.l.v b     ;X@X8XeX;X                                                        ",
"                                      B.F.V.B.oXc B.#.b b     &XqXeX,X;X                                                        ",
"                              x c $.V.G.G.y.!.@X    &.&.b   3XrXyX<XOX;X                                                        ",
"                            oX!.~.~.i.&.    #X#X    #.D.#X<X3X  <.oX:X                                                          ",
"                            &X<XqX3X;X      #X@X#XB.+X<XqXqXoXY.C.7XtX                                                          ",
"                            ;X;X7X<X:XqXrXeX;X#X+Xq.x.qXqX$XY.Y.#X8X8X                                                          ",
"                              &X>X;X@X3X=Xe.j.b.{.e.r./.  Y.C.3.OXqX3X                                                          ",
"                            Z.Y.3X:X/.C.(.F.w.t.a.C.%X}.  1.3.3.3XrXtX                                                          ",
"                              C.R.K.;X3.m.u.r.M.S.7XrX}.j.n.j.r.+XtX<X                                                          ",
"                            @XC./.{.;X1.:.t.+X7X9XrX6Xa.M.j.t.c.>XqX                                                            ",
"                            /.Z.oX!.OXC.  t.#X%XF.x.z.c.k.C.b.Q.:X8X-.                                                          ",
"                            ;X#X).Y.#X    r.^.u.e.e.u.w.r.Z.h.K.>XrXT.S                                                         ",
"                            ;X8X,XC.).  8.8.b.A.j.c.u.q.t.2XwX,X#XtXm.S                                                         ",
"                            #X7X1XZ.E.8.8.7.N.Y.C.C.C.q.r.[.[.z.:X7X] _ D                                                       ",
"                            &X6X2X:X@X9.0.q.t.3.<.3.C.u.j.w.e.~.oX$X>.H.+._ D                                                   ",
"                            ;X;X:X  ,X3Xr.q.q.:.:.:.n.u.S.^.#X^.#X@XD g.s.g.o. .D                                               ",
"                            ;X;X    ,X%Xr.n.e.q.1.3.w.u.oX;X=.l #X@X  H.{ XX.Xs.+.o.                                            ",
"                                D ~ ,X=Xn.1X~.w.w.e.w.^.!.;Xj g C.@X    _.5XK.H.W.P.H.                                          ",
"                                D _ ;X2X@X1X/.S.j.A.b.@X;X#Xk d Z     L.`.s.I.uXuX`.P. .                                        ",
"                                S Y.;X:X;X;X  Y.oXl.Z.OXOXk s s     J.R.b.  0XuX}   P. .G                                       ",
"                              S A m.;X;X;X    ,.].j.C./.m.a p j   g.g._     0X4Xd   H._ G                                       ",
"                                A S         G D <XA.3.@XT.%.n P.>.` Z S     4X`.A   H.D G                                       ",
"                                s._ _  .} ^ Z A :X3.1.*Xv.-XQ.f d         P.0X.XD   U.] G                                       ",
"                              d .... .` / d     :XC.C.*X>.L.v.R ~ f.L.K.|.-X5X>.    H.{ S                                       ",
"                              2 d 1     ,       oX@XY.{.>.L.v.2 { I.W.I.g.g.S       >.f G                                       ",
"                              d D       D  . .C ( C.Z.,Xo.`.0X`. .G g.G D         ^ C Z D                                       ",
"                              d L.`.I.g.K.H.{ C Y.3.C.(.} XX0X Xd.o.f.g.g.U.g.+.Q L.R D                                         ",
"                            S d d.g.g.d./ W A G   <.3.(.;.;.} ;.d.o./ W C d C P. X{ G                                           ",
"                              A Z Z A C d d       1.C.{.} j j } _.-.C d     3 5X|.D S                                           ",
"                              Z 2 2 d 2 Z         3.^.2X  g XX0X5XC G G       -X-.A                                             ",
"                              d d d S         K.m.1.@X7X  D |.|.R.b.~ | `.P.R.R.,.D                                             ",
"                              2 2 } ,.R.|..X|.b.C.<.1X    G S ;.[ d.XX0X0Xd.-...                                                ",
"                              d 2 R.-X XP.d. .S C.<.wX7X  _ H._ k , } ,.>.d.~ G                                                 ",
"                                ^ ^ ^ ` `   S D ).1.qX    ] h.A j k , f S S D G                                                 ",
"                              ` { v. XP.^ ` ~   @XY.qX  G s.f.l a h c D D S                                                     ",
"                          ..H.^ |.4X4XJ.-.P.{ ] o.oXwXR.>.f.A h a j v ! D                                                       ",
"                      { _.|.Q.5 ,.-X_.1 L.-X X-./ oX,X,.]   d h a y.b ! D                                                       ",
"                      XX X5X|.> 1 ,.k 5 -.|.-X.X` v.E.d 3 f 3 g l x.z.!                                                         ",
"                    `._.|.W.,.5 : f / H.P.W..X X-.{   2 3 2 d   n x.x.!                                                         ",
"                    P.>.v.>.X.R.: 5 ` / W ..J._.{ ,.#X    D     b p.y.n                                                         ",
"                    ,.>.>.Q f ,.{ / > 4 ^ -.L.W.{ -.*X          b #.p.$.      8 8 8                                             ",
"                    f.,.^ O O > o.C > 1 f ( P.W.` #X*X            #.x.z.    0 q K u 8 r                                         ",
"                ,.-.>...@ O O 2 Q Q d 2 > > 4 ....T.n.8 w 8 8 8 9 l z.$.v q P 4.5.I 8 8                                         ",
"              { ,.W.R.v.@ O . 2 2 { C d 2 1 f -.o.v.` H 4.P t % 9 a h v v q P i m H y 8 8 8 8 r -                               ",
"                Q E ^ P.` > : E ( W.( 3 2 W P.b.{ -.0 0 q u % # * a a c v n w w 8 u u 4.T 4.H 8 8 8 8                           ",
"                { 4 @ ..f d J.W.W._.f.`.o. .f.{ X.-.8 B K P K ; # s p , & # $ 0 P Y 4.5.U 4.4.J u 8 8 8                         ",
"                  5 O -.f 3 3 3 3 V ^ R.W.g.{ { { _ P K M K H % # < & & * e t U 5.4.U T H L 5.H K u P 8 8                       ",
"                  {  .X.^ 1 1 : 3 3 V ..J.{ { 3 V | 6.4.K N m u = & * , u 4.P 4.4.U 4.H m 4.4.4.4.4.U w 0                       ",
"      K Y Y Y     J.^ R f X X O 2 C W V C { f 3 f ' 6.4.M q H = & o * N 4.U i i 5.4.4.K H 4.K T N m P H 8                       ",
"      M L T L Y ^ E.J.v.V @ O / ~ Q C C ] V 3 d R | P w H B $ $ $ % N H P 4.i J 4.K H 4.P u q m u u N e 8                       ",
"      m L L u u   7 7 ( 5 } R H.R 3 f ^ 3 3 d f ] H e = m M o # 8 8 m q i H P N K K K y I P K i y y * o % $                     ",
"      u ; ; = H   v._.Q.1 Q f.P.4 d C f 3 3 3 ` e t $ = u # o # 8 0 y y H K H m K P m u i K 0 u y $ o # o $ 8                   ",
"    Y N e e % N {  ...{ ..>./ 3 f C r A V R / * * * # m q # o # 8 q y y w 0 u q y % $ e w % $ t % & o * # - 8 8                 ",
"    Y T m N Y ] ,._.f.{ f.f.4 2 d r 8 8 { _ F 8 = # 8 8 8 8 * * & # t L e = = u 8 o o $ = * * o o * o = 8 8 8 8                 ",
"          U     >.g.' / ` ^ d C             8 0 8 8 8 8 8     o o # 8 8 8 # # & * & = # # o o o = 8 8 8 8 8 8                   ",
"                                                                  8 8 8 8 = e % % $ =   % 8 8 -                                 "
};
