/* XPM */
static char *e2ce65c3c2494450f3eab5eee5c2d074I78Z1G1H3FFwlKHv[] = {
/* columns rows colors chars-per-pixel */
"64 64 183 2 ",
"   c None",
".  c #0F0A03",
"X  c #140D05",
"o  c #180F06",
"O  c #161006",
"+  c #1B1306",
"@  c #171209",
"#  c #1C1408",
"$  c #211607",
"%  c #241807",
"&  c #211708",
"*  c #251909",
"=  c #2B1D09",
"-  c #2A1C12",
";  c #351E15",
":  c #391F17",
">  c #2D210C",
",  c #34240B",
"<  c #39260B",
"1  c #37280E",
"2  c #3D2A0D",
"3  c #252012",
"4  c #352313",
"5  c #3C2416",
"6  c #372A10",
"7  c #3F2817",
"8  c #3D231B",
"9  c #422D0D",
"0  c #45310E",
"q  c #4A330E",
"w  c #4C380F",
"e  c #51370F",
"r  c #533A0F",
"t  c #593D0F",
"y  c #432D12",
"u  c #482E16",
"i  c #43251C",
"p  c #46291C",
"a  c #492B1D",
"s  c #453211",
"d  c #4B3511",
"f  c #4D3A12",
"g  c #4C321B",
"h  c #503514",
"j  c #543C11",
"k  c #5A3E12",
"l  c #52341B",
"z  c #533E1A",
"x  c #5D3D1C",
"c  c #412D20",
"v  c #4B2C22",
"b  c #502F26",
"n  c #5B3B27",
"m  c #56362B",
"M  c #5A3B2C",
"N  c #603C24",
"B  c #623F2F",
"V  c #643D32",
"C  c #5C410F",
"Z  c #564211",
"A  c #5C4312",
"S  c #5E4913",
"D  c #56411A",
"F  c #5A4719",
"G  c #5F491A",
"H  c #624512",
"J  c #684317",
"K  c #644B13",
"L  c #694E14",
"P  c #644A1B",
"I  c #694D1B",
"U  c #62451D",
"Y  c #665114",
"T  c #6C5314",
"R  c #6E5915",
"E  c #6C521B",
"W  c #715716",
"Q  c #735B15",
"!  c #795D16",
"~  c #71561C",
"^  c #735B1A",
"/  c #795E18",
"(  c #766116",
")  c #7B6316",
"_  c #7F6A17",
"`  c #77631A",
"'  c #7B6319",
"]  c #7D6A19",
"[  c #5F4222",
"{  c #5E4133",
"}  c #5C4838",
"|  c #644423",
" . c #6B4223",
".. c #634D23",
"X. c #6B4D20",
"o. c #65402D",
"O. c #6A462F",
"+. c #6A492E",
"@. c #774726",
"#. c #734629",
"$. c #7B4C25",
"%. c #6B5424",
"&. c #7B5120",
"*. c #795D27",
"=. c #7D522F",
"-. c #604137",
";. c #684B35",
":. c #66453B",
">. c #6C4B3E",
",. c #724630",
"<. c #7A4F30",
"1. c #734F3D",
"2. c #7C5134",
"3. c #785A34",
"4. c #70513A",
"5. c #7C553A",
"6. c #7E5B3E",
"7. c #7B6121",
"8. c #7D6732",
"9. c #644941",
"0. c #6D4D42",
"q. c #714D41",
"w. c #6B5042",
"e. c #6B5942",
"r. c #735344",
"t. c #785547",
"y. c #7E5845",
"u. c #7C5A4B",
"i. c #715B43",
"p. c #755F57",
"a. c #7F5F55",
"s. c #7A665D",
"d. c #816616",
"f. c #826B17",
"g. c #816718",
"h. c #846B19",
"j. c #896E19",
"k. c #877219",
"l. c #8C741A",
"z. c #8E7A1A",
"x. c #91771B",
"c. c #927A1B",
"v. c #835327",
"b. c #86582D",
"n. c #825637",
"m. c #845835",
"M. c #885C32",
"N. c #82563B",
"B. c #845C3B",
"V. c #8A5A3A",
"C. c #84682E",
"Z. c #8D7420",
"A. c #826731",
"S. c #866E36",
"D. c #886B37",
"F. c #8C603C",
"G. c #8C7439",
"H. c #825C44",
"J. c #885D44",
"K. c #86564A",
"L. c #865F4B",
"P. c #8C5C4F",
"I. c #855F55",
"U. c #8E5E50",
"Y. c #8F6052",
"T. c #8E6A54",
"R. c #8C665C",
"E. c #8C6E5F",
"W. c #836152",
"Q. c #976757",
"!. c #906953",
"~. c #966D5D",
"^. c #A26E5C",
"/. c #877366",
"(. c #8D7160",
"). c #8B776B",
"_. c #83726D",
"`. c #92746B",
"'. c #A17366",
"]. c #9C8177",
"[. c #A1887F",
"{. c #948882",
"}. c #9D9089",
/* pixels */
"                                        0 0 q q Q j.d.R _ f.f.k.l.] ( Q Z C 9 0 9 q q 0                                         ",
"                                    q q q W d.' d.l.W q ( Q R z.l.( ( R Y Y r r A q e d 0                                       ",
"                                    0 0 A W Q W H H 9 , , * # + $ * $ * < , q 0 q h H j 0 0                                     ",
"                                    0 q H q d q = $ $ % 1 y , # O @ O O o X + + = 2 9 0 q q                                     ",
"                                    0 9 q < = $ % 9 < 0 s s 9 2 = % 2 2 , + $ + + @ X + < 0                                     ",
"                                    9 9 + + + O = 9 d Q R ' Z 9 < 9 L ! Q L C C + + X X X                                       ",
"                                        , 9 < O < d K Q ! T ( s < S T d.f.! K ( j * 9 A T 2                                     ",
"                                      d 0 w 0 * 9 j H R ] K Z < * K L L L ) Q K 9 & 2 ! ) d.                                    ",
"                                      9 j Y < + < A K Y ' K r * = C K H T / ) A q * 9 / h.) s                                   ",
"                                      K ) T < $ 2 A K T ' %.K , $ C H Z T ) d.Q < * A K A d.f                                   ",
"                                      R ( Q < % 2 K T ' A.P A < + K C q I C.L K < * A K Z f.A                                   ",
"                                      R ) K < + d S %.A.G H A < + r A q W L k H 2 = K L W ' K                                   ",
"                                      Y ! j < + y *.%.f r r r 9 % d H H H 9 9 j 2 2 H W L / d                                   ",
"                                      K ( r 2 * %.D.f q t H r < , y r H H 0 0 e = 0 H A H L 9                                   ",
"                                      T _ r < + z A K R L H e 9 < 0 w H H H A 9 X # A H H H s                                   ",
"                                      ( f.K = < 9 j K K H J q 9 , j A k j A 9 > X > K H k 0 9                                   ",
"                                      ! f.Z < O q H C e j d 9 + O 9 f q 2 2 < @ - # 9 H 0 d 9                                   ",
"                                      9 R 9 = X % < 9 9 9 , = o X % < , , < . . X @ = 9 y y                                     ",
"                                        + $ = X = < < 9 9 d 9 % + < 2 < j d < X . @ # > ,                                       ",
"                                        0 9 9 + , 0 C A ! A q + # 0 w K W I k q # X 9 y 2 9                                     ",
"                                      w ) R 0 6 M :.a f.( T Q 2 * 0 S K J a U.P.2 = A K T y                                     ",
"                                      A ) R K V `.).} E K Y Y A * Z K ' ~ >.].}.j * K K ) Z                                     ",
"                                      Z L L K K.~.H.z k.C K H k % K T _ U p '.!.k $ A K K 9                                     ",
"                                      Y Q Y L n.T.>.a S Z L A k < j ! h.I p b m A + K K ! d                                     ",
"                                      R T L K #.r.B i q W R A e , d K f.x a m r.Z * S j A d                                     ",
"                                      S g.K H A a 5 ! Z ) H k w > S K K k.u s.A 9 * 1 1 Z d                                     ",
"                                      Z R K K | I.>._ S H A A 0 , S K K K h m.B.2 6 1 q d s                                     ",
"                                      A K H A 9 B :.k 0 A A k 2 > r C K H g m.J.d * j A d y                                     ",
"                                      I K C 0 l @.J j 9 r A q * 1 0 K K K 9 n e.s > j K h 9                                     ",
"                                      j j q ;.T.@.9 0 2 9 d 9 * + 0 2 0 0 0  .2.; 4 9 j 9 9                                     ",
"                                        9 9 H.V.5.y 9 9 2 < = X + + 2 0 0 9  .=.:.X y 9 >                                       ",
"                                        , 1 4  .* , y 2 9 < = X O , 0 q ^ L x :.- . # < 2                                       ",
"                                      9 9 y i v R.0.0 y 9 9 u o 1 0 w K T j : e.> * 9 9 0 9                                     ",
"                                      d j.d., :.L.-.' l.l.! t o 2 2 K K Q i r.0.q 2 0 0 j.R                                     ",
"                                      j.L H 9 /.(.j.x.x.x.d.L % 0 w Y d.W I y.6.0 < 2 Y h.Y                                     ",
"                                      d.! K q.n.5.^ x.x.x.l.W , 2 S ) k.j.Z.v.&.0 < r T Z K                                     ",
"                                      ) / K a.<.l U l.h.h.W K , 9 T / W Q p.b.I w 9 f f Z W                                     ",
"                                      K / A } c a E h.h./ L 9 > s L T T W I.R.x 0 1 2 f z.W                                     ",
"                                      K H 0.N.t.F.4.h W T L A < 9 r T ! A [ 3.H d = A L L d                                     ",
"                                      ^ | ~.,.O.M.V.v I Y j 9 < d r f g t.>.r.g d o K J K 9                                     ",
"                                      T { ]._.v 0.0.p a A j z = j K A u.W.u.E.y.7 1 0 H y 9                                     ",
"                                      H u }.{.8 i n p u H 9 9 X w K n !.n.I 4.5.g % 9 9 9                                       ",
"                                      j u <.M 8 8 v a u 9 9 9 # 2 H +.^.m.0 9 v p $ 9 9 0                                       ",
"                                      O y $.| 8 p p u y 9 y 2 o 0 9 B Q.n 7 v i - O y q 9 0                                     ",
"                                      2 9 i p 8 : ; < < , $ o X X = l a a a a p X 9 j x.h.9                                     ",
"                                      9 d d : - , y j A d 9 * X 0 T L H a a l A * 9 K x.l.9                                     ",
"                                    0 T j.e < * k Q K K K H 0 = w R T K K A d t $ H K x.x.s                                     ",
"                                    9 f.k.A = 2 T L K Y J L t 1 s k.z.z.c.Z 0 0 + A T x.l.9                                     ",
"                                    d f.H A 1 C w C Q Q W ) H < 6 f ^ Z.z.q q S $ j d.x.' d                                     ",
"                                    9 ( H A A K f l.l.L T L K < 6 Z [ S.T w H Z = k W h.T 0                                     ",
"                                    Z T A C C T T ! f._ g.L H 2 s ( s %.A A K S % k I W R s                                     ",
"                                    r ` K S 0 H K 8.G.l.x.H H 9 q ( S s ..A A A > H K Y A 0                                     ",
"                                    9 h.K 9 = j ) G.C.d.T H H < 2 ( ( q ..E K s = J H W Z d                                     ",
"                                    9 f.K 9 + j H H H L H H r < q Y L K D P t 0 $ H H ! h 9                                     ",
"                                    d ) K 0 O A H C L Q L C 9 < 0 C K L r P k 9 * H H W K 9                                     ",
"                                    9 q A 9 X < H H H H C e 9 2 0 0 r H h z e 9 X t H J j 9                                     ",
"                                      0 r 9 # < h k H k k 9 9 9 0 d 0 A e < f 9 X 0 C r 9 9                                     ",
"                                      d q 9 * 9 k t t H e d 9 2 w 0 0 0 0 6 j 2 @ q 0 2 2                                       ",
"                                      0 y < < 0 q q k w r d s , d e 0 0 s 6 y 9 + 1 1 > q 0                                     ",
"                                    0 q = X * < 9 9 9 9 9 9 y # 9 r k t d 6 2 * . + q R A 0                                     ",
"                                    d f s q > * 9 9 9 9 2 < > @ 2 0 s s 2 < > > A K Y K d 0                                     ",
"                                    0 0 Z R ( Z 9 $ . . @ > 9 = # w d 2 j Z Y S W K q f 0                                       ",
"                                      D S Y ( ] R ( g.' ] ] ] ` ` ` Y K A A j Z q 0 0 9                                         ",
"                                          d d G K Z A A S Y K S A A A d d 9 d z q 0                                             "
};
