/* XPM */
static char * black_stained_glass_xpm[] = {
"16 16 9 1",
" 	c #A3A3A3",
".	c #CCCCCC",
"+	c #8E8E8E",
"@	c #9C9C9C",
"#	c #A2A2A2",
"$	c #A1A1A1",
"%	c #9F9F9F",
"&	c #9B9B9B",
"*	c #CBCBCB",
"   .+++++++++++ ",
" ......@....... ",
" ..#..@.........",
" .$...........  ",
" $....... ... . ",
" ....... ... ...",
"....... ....... ",
" .%... ........ ",
" &*............ ",
" ....... .......",
"....... ..... ..",
" ..... ..... .. ",
"  ......... ... ",
" ......... .... ",
" .............. ",
"      ..        "};
