/* XPM */
static char * blue_xpm[] = {
"64 64 6 1",
" 	c None",
".	c #00FF00",
"+	c #00DEF6",
"@	c #00F3A2",
"#	c #00F2A7",
"$	c #00F499",
"................................................................",
"................................................................",
"............................++++++..............................",
"...........................++++++++.............................",
"..........................+++++  ++++...........................",
".........................++++     ++++..........................",
"........................++          +++.........................",
".......................++            ++.........................",
"......................++             +++........................",
".....................@++              ++........................",
".....................++               +++.......................",
"....................++                 +++......................",
"...................++                  +++......................",
"..................@++                  +++@.....................",
"..................+++                   +++.....................",
".................+++                    +++.....................",
".................+++                    +++.....................",
".................+++                     ++.....................",
".................+++                     +++....................",
".................++                       ++....................",
".................++                       +++...................",
"................@++                       ++@...................",
"................+++                       +++...................",
"................+++                       +++...................",
"................++                         ++...................",
"................++                         ++...................",
"...............#++                         ++...................",
"...............$++                         ++...................",
"................++                         ++...................",
"................++                         ++...................",
"................++                          +...................",
"................++                          +...................",
"................++                          +...................",
"................++                          +...................",
"................+                           +...................",
"................+                           +...................",
"................+                          ++...................",
"................+                          ++...................",
"................+                          ++...................",
"................+                          ++...................",
"................+                          ++...................",
"................+                          ++...................",
"................+                          ++...................",
"................+                          ++...................",
"................+                         +++...................",
"................+                         +++...................",
"................++                        ++@...................",
"................++                        ++....................",
"...............+++                       +++....................",
"...............@++                       +++....................",
"................++                       ++.....................",
"................++                       ++.....................",
".................+                      ++......................",
".................++                     ++......................",
"..................++                   ++.......................",
"..................@+                  +++.......................",
"...................+++               +++........................",
"...................@+++            ++++.........................",
"......................+++        +++++..........................",
".......................++++      ++++...........................",
".........................+++++++++++............................",
".............................++++@..............................",
"................................................................",
"................................................................"};
