/* XPM */
static char * blue_xpm[] = {
"64 64 3 1",
" 	c None",
".	c #00FF00",
"+	c #00DEF6",
"................................................................",
"................................................................",
"............................++++ ...............................",
"...........................++  +++..............................",
"..........................++     ++.............................",
".........................++       +++...........................",
"........................++          + ..........................",
".......................++            +..........................",
"...................... +             ++.........................",
"......................++              ++........................",
".....................++               ++........................",
".....................+                 +........................",
"....................+                  ++.......................",
"...................++                  ++.......................",
"...................++                   +.......................",
"...................+                    + ......................",
".................. +                    ++......................",
"..................++                     +......................",
"..................++                     ++.....................",
"................. +                       +.....................",
"..................+                       + ....................",
"..................+                       ++....................",
"................. +                       ++....................",
".................++                       ++....................",
".................+                         +....................",
"................++                         + ...................",
"................ +                         ++...................",
"................++                         ++...................",
"................++                         ++...................",
"................++                         ++...................",
"................++                          +...................",
"................++                          +...................",
"................++                          +...................",
"................++                          +...................",
"................+                           +...................",
"................+                           +...................",
"................+                          ++...................",
"................+                          ++...................",
"................+                          ++...................",
"................+                          + ...................",
"................+                          + ...................",
"................+                          + ...................",
"................+                          +....................",
"................+                          +....................",
"................+                         ++....................",
"................+                         + ....................",
"................++                        + ....................",
"................++                        +.....................",
"................++                       ++.....................",
"................ +                       ++.....................",
"................ +                       +......................",
"................ +                       +......................",
".................+                      ++......................",
".................++                     ++......................",
"..................+                    ++.......................",
"...................+                   ++.......................",
"...................+++                ++........................",
".................... ++              ++.........................",
"......................+++            +..........................",
".......................++++        ++...........................",
".........................+++++++++++............................",
".............................    ...............................",
"................................................................",
"................................................................"};
