/* XPM */
static char * blue_closed_xpm[] = {
"64 64 5 1",
" 	c #00FF00",
".	c #00DEF6",
"+	c #00F3A2",
"@	c #00F2A7",
"#	c #00F499",
"                                                                ",
"                                                                ",
"                            ......                              ",
"                           ........                             ",
"                          ...........                           ",
"                         .............                          ",
"                        ...............                         ",
"                       ................                         ",
"                      ..................                        ",
"                     +..................                        ",
"                     ....................                       ",
"                    ......................                      ",
"                   .......................                      ",
"                  +.......................+                     ",
"                  .........................                     ",
"                 ..........................                     ",
"                 ..........................                     ",
"                 ..........................                     ",
"                 ...........................                    ",
"                 ...........................                    ",
"                 ............................                   ",
"                +...........................+                   ",
"                .............................                   ",
"                .............................                   ",
"                .............................                   ",
"                .............................                   ",
"               @.............................                   ",
"               #.............................                   ",
"                .............................                   ",
"                .............................                   ",
"                .............................                   ",
"                .............................                   ",
"                .............................                   ",
"                .............................                   ",
"                .............................                   ",
"                .............................                   ",
"                .............................                   ",
"                .............................                   ",
"                .............................                   ",
"                .............................                   ",
"                .............................                   ",
"                .............................                   ",
"                .............................                   ",
"                .............................                   ",
"                .............................                   ",
"                .............................                   ",
"                ............................+                   ",
"                ............................                    ",
"               .............................                    ",
"               +............................                    ",
"                ...........................                     ",
"                ...........................                     ",
"                 .........................                      ",
"                 .........................                      ",
"                  .......................                       ",
"                  +......................                       ",
"                   .....................                        ",
"                   +...................                         ",
"                      ................                          ",
"                       ..............                           ",
"                         ...........                            ",
"                             ....+                              ",
"                                                                ",
"                                                                "};
