/* XPM */
static char *_1c1b6c4ee44440dd50b4f9379c42f2cpW9AZC0dbCP2eNCD[] = {
/* columns rows colors chars-per-pixel */
"64 64 204 2 ",
"   c #010000",
".  c #0B0000",
"X  c #0D0A00",
"o  c #140100",
"O  c #1B0400",
"+  c #160A00",
"@  c #1B0A00",
"#  c #171100",
"$  c #181500",
"%  c #220100",
"&  c #2C0200",
"*  c #230C00",
"=  c #2A0C00",
"-  c #340300",
";  c #3C0300",
":  c #320B00",
">  c #3C0C00",
",  c #231300",
"<  c #2B1400",
"1  c #221800",
"2  c #2D1A00",
"3  c #331500",
"4  c #3A1500",
"5  c #341B00",
"6  c #3B1C00",
"7  c #162C00",
"8  c #2D240D",
"9  c #352100",
"0  c #3C2200",
"q  c #352B02",
"w  c #3D2A00",
"e  c #2E3700",
"r  c #3D320C",
"t  c #3A3800",
"y  c #342C11",
"u  c #3B3215",
"i  c #373015",
"p  c #450400",
"a  c #490700",
"s  c #430B00",
"d  c #4B0C00",
"f  c #510D00",
"g  c #441400",
"h  c #4D1500",
"j  c #421B00",
"k  c #4B1A00",
"l  c #521400",
"z  c #581700",
"x  c #531C00",
"c  c #5B1C00",
"v  c #432300",
"b  c #4A2400",
"n  c #452A00",
"m  c #4B2C00",
"M  c #532300",
"N  c #5B2200",
"B  c #532C00",
"V  c #5B2C00",
"C  c #463200",
"Z  c #4C3200",
"A  c #473B00",
"S  c #4C3C00",
"D  c #40360E",
"F  c #533300",
"G  c #5B3500",
"H  c #553A00",
"J  c #5C3C00",
"K  c #413615",
"L  c #453C1D",
"P  c #423917",
"I  c #622600",
"U  c #632B00",
"Y  c #6A2C00",
"T  c #623500",
"R  c #6B3500",
"E  c #623C00",
"W  c #6A3C00",
"Q  c #703500",
"!  c #723C00",
"~  c #394000",
"^  c #434500",
"/  c #4C4500",
"(  c #494A00",
")  c #474B00",
"_  c #534200",
"`  c #5D4100",
"'  c #534C00",
"]  c #5C4C00",
"[  c #5B5300",
"{  c #575900",
"}  c #584A19",
"|  c #644200",
" . c #6A4400",
".. c #644A00",
"X. c #6B4A00",
"o. c #684708",
"O. c #6A490A",
"+. c #634C0A",
"@. c #734400",
"#. c #7C4300",
"$. c #734B00",
"%. c #7D4C00",
"&. c #6B5300",
"*. c #6C5D00",
"=. c #645B00",
"-. c #755300",
";. c #7D5400",
":. c #745B00",
">. c #7E5A00",
",. c #4B6701",
"<. c #506100",
"1. c #577E0C",
"2. c #626100",
"3. c #686900",
"4. c #6A6100",
"5. c #746301",
"6. c #7F6300",
"7. c #7E6902",
"8. c #4D4323",
"9. c #504623",
"0. c #554A29",
"q. c #5A4D2C",
"w. c #554B23",
"e. c #5D522C",
"r. c #675829",
"t. c #635629",
"y. c #615531",
"u. c #665B33",
"i. c #695D36",
"p. c #6D6139",
"a. c #6A6036",
"s. c #814C00",
"d. c #864800",
"f. c #825400",
"g. c #8A5500",
"h. c #825900",
"j. c #815D00",
"k. c #835C00",
"l. c #8A5C00",
"z. c #945600",
"x. c #945C00",
"c. c #9A5A00",
"v. c #A45E00",
"b. c #836200",
"n. c #8C6300",
"m. c #826A01",
"M. c #8D6A00",
"N. c #946500",
"B. c #9A6500",
"V. c #956A00",
"C. c #9B6B00",
"Z. c #8B7203",
"A. c #8C7009",
"S. c #957201",
"D. c #9A7000",
"F. c #9C7401",
"G. c #9E7C06",
"H. c #947708",
"J. c #9A7608",
"K. c #9E7D09",
"L. c #9F7C13",
"P. c #A36100",
"I. c #A36D00",
"U. c #A96C00",
"Y. c #A27100",
"T. c #A47300",
"R. c #AA7500",
"E. c #A27D05",
"W. c #AC7C00",
"Q. c #A37E09",
"!. c #B37600",
"~. c #B47E00",
"^. c #B87E00",
"/. c #A58100",
"(. c #AD8301",
"). c #A4810B",
"_. c #AB820E",
"`. c #B38200",
"'. c #BC8200",
"]. c #B58900",
"[. c #BB8B00",
"{. c #B38C0C",
"}. c #B98F09",
"|. c #A78014",
" X c #AF8A14",
".X c #AB8A1A",
"XX c #B38D15",
"oX c #B48E18",
"OX c #B79419",
"+X c #BC971A",
"@X c #B69115",
"#X c #BC9521",
"$X c #BD9A23",
"%X c #B69321",
"&X c #C38200",
"*X c #C28A00",
"=X c #CA8800",
"-X c #C59708",
";X c #C29913",
":X c #C29C23",
">X c #C89F2D",
",X c #C5A222",
"<X c #CDA52C",
"1X c #D4AE32",
/* pixels */
".     . . X .       . . O , . . o . .     . . .   o . . . .       . o o . .   .       o . . . .       .   .       . . . . .   < ",
"  . . . + @ * n n n ` S Z C C Z X.;.-.J J n Z Z Z n m 0 v n m < < 5 * O . . o O . . @ 6 O % o @ 5 5 0 * 5 5 o v F F m ..-.n .   ",
". O . e 0 v H ..h.j.X.H Z | J ..$.J 3 6 0 3 C C v 0 H |  .G G G G G G G 5 F ` H | C F n 5 $.J n m C Z J X.o. .m 5 4 6 0 m H <   ",
". . . Z F G F v J <X%X-.h.;.h.;.h.v $.Y.$.. J -.-.J @.b 6  .v j B G J f.v N.n. .m 0 m | Z M.$.2 :.B d V n.:XOX|.0 v m 0 v n 0   ",
". . 2 w X.X.m m J h.X.j.h.X. .- &  .5 R.R & :.>.n E -  .C.$.6 I N x h.C. .U M n.d d g X.n H b.A.h.x p d d l {.1XXX[. .| 0 w 0 o ",
"  o 7  .F X.`.C.R.J | | E >.$.% = $.G Y.- % @.U g.E o j l.f.n.E ; % G E E d k Y.d - b j.>.+.M.M d o . E d R (.<X*X-XF.-.E 0 < . ",
". = S B.R.`.`.F.T.J G 0 X.;.k.~.x.N.N.h . % ;.! [.$.s.C.V.h.(.h % o F.F z % 0 W h  .b.> h :.W & . o  .g B n.M.n.D.;XJ.;.-.0 * . ",
"  . B  .$.Y.F.| H.J ..J j.C.>   & W ;.h O s Y.[.[.k : B m m T h o &.(.4 &   = %.N.].R - s S.W s o T $.s d G l.F $.).C.-.@.0 o . ",
". . 3 E  .J v :.$.n b = n.Y.@ . #.N.T > g I B.E.F.N k b b f.f.V m f.g.k l : : I R.U.g.@.#.N.V.%.N R $.g.%.C.N.$.k.V.B.;.$.* o . ",
". . O V ..-...$.>.m n < F n.N.l.l.l.g.s.g.x.x.g.B.x.l.f.g.f.f.f.s.s.%.@.@.@.! ! W g.B  .$.b F m 5 3 < m | ;.f.$.$.J X.n $.o .   ",
". 0 m m m m m Z F F b n n B v b B V m j b G V v j v 6 3 : : 4 | 4 4 3 : : 4 4 3 4 : 4 j j 4 > 4 n j n v 6 3 6 5 n 6 2 * * < = * ",
"o 3 6 v n F Z | F * F ..G m 4 j W @.b = g g 3 = & = = = & = 5 n : : 4 3 j C w + o 4 4 V N b E V.Q.J.h.C X.n.n < C J F 5 3 3 < 3 ",
"+ < 4 6 0 B F F.j.$.S.J.J.n.b.n.T.n.0 x.M T @ r q           P 9       . . P r       b ! V.K.Q.oX<X:X1X1X#XQ.>XH 5 m $X.XE F 0 0 ",
"+ 2 5 j v B X.T.F.M.S.S.#X:XM.M.F.F.F.g.k 3   9 q X   .     u K           r.a.  X   4 %.).K.Q.:XF.b.XXXX:XL.>Xh.n | G...B J 0 0 ",
"@ 6 6 E $. .V -.j.M.J.H.OXOXM.M.S.F.I.V M     } } X         u 0.          e.u.      * @.Q.C.T.Q.M.V.J.C.-.h M.(.Y.F.n.$.F ..v 0 ",
"1 v b Z ] v j J >.h. X:X<X_.M.M.K.T.g.V 3     r.t.$         q.y.          w.q.      o v Q.Q.E.x C.R.R.R.h O : T.f.c ! E m F n 6 ",
"@ * 4 X.$.-.v X.-.V.).:XJ.X.-.M.S.G.l.k .     9.i.          8.L           e.8.        * J.Q.Q.l s.P.B.Q @.% @.I d l T  .Z F Z v ",
"+ @ n :.:.X. .-.m.3.>.H.Q.K. .M.>.E.G k       i i.X         y.u           e.L         * M.Q.Q.l.N N c c M.D.! f h T.m.X.F F C v ",
"@ * n &.:.:.G $.b.1.&.H :X.Xm b.>.F.k 4       i i.          y.y           e.P         0  .S.M.l.N J.! R ).D.~.h c F.j.] _ S n C ",
"o 4 4 | :.:.>.k.B.H.b.J <XL.5 b.n.I.B .       9.y.          u.9.          u.i         w 5 V.l.Q.Q.Q.O % `.C.Y.; : M.X.-._ _ S m ",
"+ 5 ` 3 *.>.6.Y.U.U.R.E. Xn.n.b.N.f.N         e.a.X +     8 i.0.          i.e.    .     % V.l.Q.Q.!     g Y l   % ] _ $.H / Z 0 ",
"X < w ] b.V.Y.E.Y.Y.W.-Xm.0 V.n.I.R b         u.i.        0.i.q.          i.i.      .   5 X.n.F.!.z - o N h > O E &.n.h.Z S Z 0 ",
"X 3 2 A 6.) ] Z.M.R.[.~.;.B R.W.U.G 5       $ p.p.    @ 0 H i.+ .   . . 1 i.+.Z 2       4 B Y.R.R.R.! d.I.B.%.W N.C.V.k.J H m H ",
"+ 4 3 ] m.] &.V.R.!.[.I.R.;.I.C.U.* . @ b , 1 i.w 9 -.Y.j.>.>.M.k.l.R.C.-.&...F J 5 : = 3 4 R.R.R.U.!.R.R.R.B.C.U V $.H A S F ` ",
"X 5 6 6 :.=.m.R.U.R.R.R.R.R.W.R.C.= G G T g.W.W.W.R.T.R.R.W.!.'.g.C.!.'.T.>...| F  .6 4 : < R.U.U.B.R.R.R.R.Y ; d g.$._ Z A A ` ",
"+ + : 6 b.N.j.R.R.!.P.R.W.W.R.R.g.T T W  .%.T.R.W.N.%.T.^.R.N.I.g.s.s.l.@.%.f.$.F | E 6 v v %.R.g.Q g.B.R.l p ; d.'.h...Z A C F ",
"+ # + S l.N.f.l.C.l.$.f.T.W.R.I.@ M %.$.M.$.R.R.R.R.N.!.&X~.I.Y.'.~.T.Y.l.Y.W.;.F F $.m n n %.R.C.#.c c o O - R.'.Q l.%.J J n n ",
"+ + $ M N.N.N.D.W.].T.%.f.W.R.Y.b G M.;.R.R.W.Y.R.R.!.&XR.R.R.W.~.W.T.W.R.R.~.T.J v.v.F G n b R.B.f.B.Q & p x.V.R d  .;.J J n n ",
"+ + + J $.$.T.V.W.T.].N.%.x.R.E V $. .M.W.R.R.R.R.R.R.!.R.R.W.W.W.W.Y.R.R.U.~.R.%.s.g.E F F v R.R.B.~.~.d.I P.x.I p N N.X.m F 0 ",
"+ o o F G N.x.!.n.n.C.h.f.$.R.< n C. .N.W.R.R.R.^.&X&X~.~.R.W.`.*XW.R.Y.R.R.R.R.x.x.J | F J m R.R.Y.c l R.R.N.V.s.- ; W N...J * ",
". O o V N l.$.O.G B B.%.W l.N.5 E h.$.F.R.W.W.W.=X=X&X`.^.R.T.[.[.~.C.R.U.R.R.[.N.z.z.f.m J ..C.I.d b d x.C.g.c d ; a M N.M.9 @ ",
".   . N x f.O.B k J $.E V l.f.3 l.>.n.Y.R.Y.R.&X&XR.R.R.R.R.R.W.W.Y.I.R.I.R.R.].n.T v.v.E J E G R.h o o % - > f d ! U l.C.l.o 2 ",
"  . n %.R g.O.G k E $.G W C.G m V.h.B.R.C.R.R.!.R.R.R.R.R.R.T.W.R.Y.Y.R.R.R.U.I.C.c.v.v.l.G E 5 R.W.l.    % W N.V.B.h.C.C.n.. 5 ",
". 2 $.T V g.o.b k o.$.B G s.m $.;.n.l.F.f.$.R.R.R.R.R.R.R.T.W.W.R.W.W.R.R.R.;X;XF.P.W $.V.J F m W.R.R.= % g.N.N.N.N.n.V.V.n.  * ",
"  2 $.T V g.o.M G $.;.B V W < m X.;.n.R.f.B.R.F.C.h.R.R.R.`.W.W.R.h.R.R.B.N.;X;XB.P.$.E n.E m 0 Y.Y.C.x.#.C.U a d I B.V.N.V.. . ",
". * $.T x g.g.-.-.j.G 6 V G v J J ;.V.n.T.Y.T.D.[.~.R.'.~.'.!.R.W.h.l.N.N.M.J.;Xn.x.s.m $.| F F X.| -.>.N.! d     U N.N.V.N.@ o ",
". 5 $.X.M T B G $.* @ * $.v m X...-.T.C T.R.W.'.*XR.R.`.'.~.~.*X*X'.'.'.Y.n./.{.j.g.g.m ;.J J F F b.h.;.f.T.Y   o n.n.l.N.N.m . ",
"O H X.-.G j = = * o   o J 3 B  .E X.R.h.M.T.R.`.!.V.~.*X[.'.[.^.l.@.~.[.T.T.]./.h.` T G X. .n n m V.$.s ! Y.N.h R C.h.h.h.f.h.O ",
"o 0 ..$.;.;.< v = 4 3 $.F < J -.j.-.C.V.G.R.T.].^.W.^.*X'.R.R.Y.@.l.R.R.T.R.]./.M.m < n E  ...n F F.M   o C.z I C.R.%. .@.$.k.. ",
"@ 6 X.$.T @.E 4 b  .s.h.b n J h.j. .`.j.T.W.R.F.R.~.W.N.l.l.;.j.Y.B.Y.R.(.R.E.;.-.m + G M B M.5 H M.%.O N.c p %.D.h & d E @.X.. ",
"o C | E M M @.J W s.g.@.F 6 | h.;.;.5 1 T.R.T.M.G.Y.$.$.@.f.f.R.C.n.l.n.b.F.,Xn.-.m 3 %.T m J 5 J X.E.Q.Y.f.- x.F.& % M E @.9 o ",
"o 5 X.X.l.f.N.l. .%.F.$.G F ;.;. ...-.Y.T.n.@.$.T.T.$.$.h.R.W.R.T.Y.{.+X,X+X@XM.X.n 4 E n Z | o F | *.m.%.% o #.E.V.V.g.W $.n o ",
". < C n.T.V.N.l.M.Y.T. .J ..$.;.0 ..-.;X}.l.@.M.R./.n.T.(.D.T.E.V.-.$.;.-.` C ` m M B G J ;.| 0 F ` ( / M & & x k b.M.g. . .< . ",
"o O H V.T.I.Y.Y.M.T.$.B n $.| H , J B m &.-.h...M.).9 w n | -.J 0 Z J F n m Z v V T G F J G J m v m 7.K.E.:.M x l.M.b.X.E  ., . ",
". < 5 T.R.T.T.T.N.T.n 9 6 h.;.` w J w 2 2 < 9 H C F Z m F Z n w 2 , < < 2 6 b B V V B B B B B F J < -.K.E.( ( Q.G.F.%.X.W  .+ . ",
"+ . ..Y.T.T.T.T.l.E 0 * Z l.-.` | J E J ` -.Z C n C m n C H F H J X.G B M V T ` F J F M B G -...H o J G.).m.J.Q.S.S.M.-.F E + . ",
"o o ;.C.Y.Y.T.-.J n 6 2 @ = G 5 H H F J J ..m C F Z Z J X.X.J | $. .@.G G  .;. .G ` w 9 6 n 9 n @ @ 2 0 w H F n 9 C 6 2 j 2 + + ",
"O + M.m F G ..E G J 0 * * * O O 3 m n m E J |  .| F m m F F B Z Z Z Z F F F B G ` J 2 @ 9 5 + @ @ n Z F m H H Z F m F Z 6 . + < ",
"* *     6 2 < 0 B J     < < 5 n w m 2 5 F Z n m F J F F 6 2 6 0 3 5 m F 6 n n ` C 2 3 * < * @ < 3 . o 5 ` X.` ..n 3 9 6 0 5 . 5 ",
"o       v ..E f.X.@ . + + o , 9 n 0 0 3 v Z J F X.C.C.R.I.B.C.T.R.R.W.T.T.N.X.S.H.K.F.G.Q.@X:X:XOX+X+XoX XK.).E.S.S.J < m J .   ",
"  . 5 j.Y.T.T.T.T.T.V.n.n.N.N.V.V.l.k.>.n.B.n.k.M.R.Y.%.Y.C.T.T.(.N.%.C.J X.X.>.S.J.G.Q.XX XJ.E.E.G.Q.Q.E.)./.).E.oX:.J 0 * < . ",
"  o X.C.Y.T.T.F.R.T.b.n.n.l.N.V.N.$.X.h.N.n.-.;.l.Y.W W W R.W.R.Y.E  . .F  .*.M.F.E.G.Q.Q.).E.F.V.S.).G.F.).K.G.G.V...v | F 3 * ",
"@ 2 X.>.:.X.C.C.M.>.h.k.n.h.f.>.-.-.` l.N.N.J ;.N.l.W W #.R.R.R.V.W W E H &.M.S.Q.K.).G.E.Q.Q.V.k.Q.).D.j.>.n.V. ...$...E J 0 * ",
"5 3 $.X.X././.G.F.V.M.X.n. .E ;.-.X.;.M.n.l.J h.n.M.k.C.R.R.W.R.W.l.W / ~ ) V.S.S.J.K.K.).G.Q.G...Q.K.M.S.S.V.J.-.F.;.m G G < o ",
"3 3  .E $.E.E.(.S.D.G.k.n.;.T $.;.-.k.n.n.@.J ;.V.k.M.C.R.Y.R.R.R.B.N...t ~ n.V.n.J.J./.E.).).G.Q.Q.G.F.G.S.G.).G.D.>.6 m E 6 . ",
"2 < :.F F b.E.F.F.F.D.X.k.k.j.X.-.;.l.k.h.| | X.n.l.l.f.T.R.R.Y.I.M.C.-.' ' 2.<.M.M.).K.).G.G.E.).E.Q.G.K.J.F.G.G.Z.j.B B F v . ",
"< 5 G F 0 b.S.F.S.S.S.n.>.k.j.>.>.X.k.h...X.:.{ l.l.l.n.n.C.C.B.N.l.N.X.n | ^ ) j.b.*.4.).Q.).m.V.H.K.K.G.K.G.Q.F.b.E F G F 6 . ",
"5 * B G F F F.D.V.S.F.b.j.>.;.j.$.m w n X.$.&.,.,.;.l.l.l.l.;.%.f.;.N.V V | ] ] 4.V.5.m.Z.Q.J.[ Z.>.n.K.G.M.K.J.b.j.F B F m 5   ",
"* o B F m n G.F.E.M.b.>.j.j.F b.h.H _ -.-.Z n { [ | l.l.l.$. .E W  .%.v j E ;.-.2.M.V.2.2.m.' 7.S.V.n.F.S.S.G.D.F.m B F F G v   ",
"o . b F B 6 S.S.S.V.b.$.>.$.@.$.k.h.$.l.l.X.E | | ;.f.h.h. .W E T T 2 4 6 G  .X.j.M.M.S.7.6.' S.M.>.m.:.t 9 . @ o . B F m -.H * ",
"3   5 B F O < 3  .B m M B b B G E T G W W $.Z 5 6 < 0 J E G E B B O * * @ = * | | $.$.$.$.@.X. .J | J J n 5 + < * b m F $.| 5 O ",
"    . J E @ 9 @ 5 = = 3 3 * 3 j V T E | | X.0 5 5 0 6 n n B B j 5 * v b 6 m v J E E E E J E E J F B G B B B B F F E J X.| W O   ",
". 5 * . n J J ` | G G E m F 0  .$.$.C < 0 + < @ @ X # $ , , v M v v v 6 m F n E  .| W X. .@.E n 5 F E  . .J  .%.C.$.J E Z 5 .   ",
". 5 *     . . o o o @ O o o o . + o o . o . o . o o o o + = 3 + . o * . .   . @ . . 3 < * * @ O .   . . . . . . . o o o . o     "
};
