/* XPM */
static char * glass_xpm[] = {
"16 16 5 1",
" 	c None",
".	c #FEFEFE",
"+	c #C0F5FE",
"@	c #B3D6DB",
"#	c #000000",
"... ...........+",
".      +       @",
".  .  +         ",
". .           +@",
"..       .   + @",
".       .   +   ",
"       +       @",
". +   +        @",
".+             @",
".       .       ",
"       .     .  ",
".     +     .  @",
" +         .   @",
"+         +    @",
".              +",
"+@@@@@  @@ @@@@+"};
