/* XPM */
static char * orange_stained_glass_xpm[] = {
"16 16 2 1",
" 	c #E7BBA6",
".	c #F0D8CD",
"   .            ",
" ...... ....... ",
" .. .. .........",
" . ...........  ",
"  ....... ... . ",
" ....... ... ...",
"....... ....... ",
" . ... ........ ",
"  ............. ",
" ....... .......",
"....... ..... ..",
" ..... ..... .. ",
". ......... ... ",
" ......... .... ",
" .............. ",
"      ..  .     "};
