/* XPM */
static char * orange_closed_xpm[] = {
"64 64 4 1",
" 	c #00FF00",
".	c #FFA200",
"+	c #D0CB00",
"@	c #A8E100",
"                                                                ",
"                                                                ",
"                                                                ",
"                                                                ",
"                                                                ",
"                                                                ",
"                             ....                               ",
"                            ......                              ",
"                           ........                             ",
"                          ..........                            ",
"                         ...........+                           ",
"                        .............                           ",
"                       ...............                          ",
"                      .................@                        ",
"                     ...................                        ",
"                    ....................                        ",
"                  @......................                       ",
"                  ........................                      ",
"                  ........................                      ",
"                 .........................                      ",
"                @.........................                      ",
"                ..........................                      ",
"               @..........................                      ",
"               @..........................                      ",
"               ...........................                      ",
"               ...........................                      ",
"               ...........................                      ",
"               ...........................                      ",
"               ...........................                      ",
"               ...........................                      ",
"               ...........................                      ",
"               ...........................                      ",
"               ...........................                      ",
"               ...........................                      ",
"               ...........................                      ",
"               ...........................                      ",
"               ...........................                      ",
"               ...........................                      ",
"               ...........................                      ",
"               ...........................                      ",
"               ...........................                      ",
"               ...........................                      ",
"               ...........................                      ",
"               ..........................@                      ",
"               ..........................@                      ",
"               @.........................@                      ",
"               @.........................@                      ",
"                .........................@                      ",
"                 ........................                       ",
"                 ........................                       ",
"                  .......................                       ",
"                  .......................                       ",
"                   .....................                        ",
"                    ....................                        ",
"                     .................@                         ",
"                      ................                          ",
"                        ...........+@                           ",
"                         ..........                             ",
"                                                                ",
"                                                                ",
"                                                                ",
"                                                                ",
"                                                                ",
"                                                                "};
