/* XPM */
static char * orange_xpm[] = {
"64 64 5 1",
" 	c None",
".	c #00FF00",
"+	c #FFA200",
"@	c #9EE500",
"#	c #A8E100",
"................................................................",
"................................................................",
"................................................................",
"................................................................",
"................................................................",
"................................................................",
".............................++++...............................",
"............................++  ++..............................",
"...........................@+    ++.............................",
"..........................#+       +............................",
".........................+++       +#...........................",
".........................+         ++...........................",
".......................#+           ++..........................",
"......................#+             +..........................",
".....................#+              ++.........................",
"....................#+                +.........................",
"....................++                ++........................",
"...................#+                 ++........................",
"...................+                   +........................",
"..................++                   ++.......................",
"..................+                    ++.......................",
".................++                    ++.......................",
".................++                     +.......................",
".................+                      +.......................",
"................++                      +#......................",
"................++                      ++......................",
"................++                      ++......................",
"................++                      ++......................",
"................+                       ++......................",
"................+                       ++......................",
"................+                       ++......................",
"................+                       ++......................",
"................+                       ++......................",
"................+                       ++......................",
"................+                       ++......................",
"................+                       ++......................",
"................+                       ++......................",
"................+                       ++......................",
"................+                       ++......................",
"................+                       ++......................",
"................+                       +#......................",
"................++                      +#......................",
"................+                       +.......................",
"................++                      +.......................",
"................++                     ++.......................",
"................#+                     ++.......................",
".................+                     +#.......................",
".................+                     +#.......................",
".................#+                    +........................",
"..................+                   ++........................",
"...................+                  +#........................",
"....................+                 +.........................",
"....................++               +#.........................",
"......................+              +..........................",
".......................++           ++..........................",
"........................#+++      +++...........................",
"...........................+++   ++#............................",
"............................++++++..............................",
"................................................................",
"................................................................",
"................................................................",
"................................................................",
"................................................................",
"................................................................"};
