/* XPM */
static char * test_xpm[] = {
"64 64 2 1",
" 	c None",
".	c #FFA200",
"                                                                ",
"                                                                ",
"                                                                ",
"                                                                ",
"                                                                ",
"                                                                ",
"                                                                ",
"                                                                ",
"                                                                ",
"              ........                                          ",
"              .    ...........................                  ",
"              .                                                 ",
"              .                                                 ",
"              .                                                 ",
"              .                                                 ",
"              .                                                 ",
"              .                                                 ",
"              .                                                 ",
"              .                                                 ",
"              ..                                                ",
"              ..                                                ",
"              ..                                                ",
"              ..                                                ",
"              ..                                                ",
"              ..                                                ",
"               .                                                ",
"               .                                                ",
"               .                                                ",
"               .                                                ",
"               .                                                ",
"               .                                                ",
"               ..                                               ",
"               ..                                               ",
"               ..                                               ",
"               ..                                               ",
"               ..                                               ",
"               ..                                               ",
"                .                                               ",
"                .                                               ",
"                .                                               ",
"                .                                               ",
"                .                                               ",
"                .                                               ",
"                .                                               ",
"                .                                               ",
"                .                         ....                  ",
"                ................................                ",
"                .......                                         ",
"                                                                ",
"                                                                ",
"                                                                ",
"                                                                ",
"                                                                ",
"                                                                ",
"                                                                ",
"                                                                ",
"                                                                ",
"                                                                ",
"                                                                ",
"                                                                ",
"                                                                ",
"                                                                ",
"                                                                ",
"                                                                "};
