/* XPM */
static char * tinted_glass_xpm[] = {
"16 16 3 1",
" 	c #878489",
".	c #C8C8C8",
"+	c #CBCBCB",
"   .            ",
" ......+....... ",
" ..+..+.........",
" .+...........+ ",
" +.......+...+. ",
" .......+...+...",
".......+....... ",
" .+...+........ ",
" +............. ",
" .......+.......",
".......+.....+..",
" .....+.....+.. ",
".+.........+... ",
" .........+.... ",
" .............. ",
"      ..  .     "};
