/* XPM */
static char * door_open_xpm[] = {
"64 64 162 2",
"  	c None",
". 	c #0B0000",
"+ 	c #010000",
"@ 	c #0D0A00",
"# 	c #1B0400",
"$ 	c #231300",
"% 	c #140100",
"& 	c #2B1400",
"* 	c #160A00",
"= 	c #1B0A00",
"- 	c #230C00",
"; 	c #452A00",
"> 	c #5D4100",
", 	c #4C3C00",
"' 	c #4C3200",
") 	c #463200",
"! 	c #6B4A00",
"~ 	c #7D5400",
"{ 	c #755300",
"] 	c #5C3C00",
"^ 	c #4B2C00",
"/ 	c #3C2200",
"( 	c #432300",
"_ 	c #341B00",
": 	c #3B1C00",
"< 	c #220100",
"[ 	c #533300",
"} 	c #644A00",
"| 	c #2E3700",
"1 	c #553A00",
"2 	c #825900",
"3 	c #815D00",
"4 	c #644200",
"5 	c #734B00",
"6 	c #331500",
"7 	c #6A4400",
"8 	c #5B3500",
"9 	c #684708",
"0 	c #3A1500",
"a 	c #CDA52C",
"b 	c #B69321",
"c 	c #A27100",
"d 	c #734400",
"e 	c #4A2400",
"f 	c #421B00",
"g 	c #532C00",
"h 	c #825400",
"i 	c #946500",
"j 	c #8C6300",
"k 	c #8D6A00",
"l 	c #2D1A00",
"m 	c #745B00",
"n 	c #4B0C00",
"o 	c #5B2C00",
"p 	c #C29C23",
"q 	c #B79419",
"r 	c #A78014",
"s 	c #3D2A00",
"t 	c #340300",
"u 	c #2C0200",
"v 	c #AA7500",
"w 	c #6B3500",
"x 	c #7E5A00",
"y 	c #623C00",
"z 	c #9B6B00",
"A 	c #622600",
"B 	c #5B2200",
"C 	c #531C00",
"D 	c #632B00",
"E 	c #532300",
"F 	c #441400",
"G 	c #836200",
"H 	c #8C7009",
"I 	c #450400",
"J 	c #521400",
"K 	c #B38C0C",
"L 	c #D4AE32",
"M 	c #B38D15",
"N 	c #BB8B00",
"O 	c #162C00",
"P 	c #B38200",
"Q 	c #2A0C00",
"R 	c #8A5500",
"S 	c #8A5C00",
"T 	c #3C0300",
"U 	c #4B1A00",
"V 	c #634C0A",
"W 	c #AD8301",
"X 	c #C28A00",
"Y 	c #C59708",
"Z 	c #9C7401",
"` 	c #9A6500",
" .	c #A47300",
"..	c #835C00",
"+.	c #B47E00",
"@.	c #945C00",
"#.	c #4D1500",
"$.	c #723C00",
"%.	c #814C00",
"&.	c #956A00",
"*.	c #581700",
"=.	c #6A3C00",
"-.	c #3C0C00",
";.	c #9A7000",
">.	c #C29913",
",.	c #9A7608",
"'.	c #947708",
").	c #430B00",
"!.	c #320B00",
"~.	c #623500",
"{.	c #6B5300",
"].	c #7D4C00",
"^.	c #B58900",
"/.	c #957201",
"(.	c #A4810B",
"_.	c #7C4300",
":.	c #A27D05",
"<.	c #A96C00",
"[.	c #A37E09",
"}.	c #3D320C",
"|.	c #352B02",
"1.	c #423917",
"2.	c #352100",
"3.	c #9E7D09",
"4.	c #B48E18",
"5.	c #BC9521",
"6.	c #C89F2D",
"7.	c #BD9A23",
"8.	c #AB8A1A",
"9.	c #9F7C13",
"0.	c #9E7C06",
"a.	c #A36D00",
"b.	c #221800",
"c.	c #5C4C00",
"d.	c #AF8A14",
"e.	c #AB820E",
"f.	c #5B1C00",
"g.	c #A36100",
"h.	c #703500",
"i.	c #826A01",
"j.	c #686900",
"k.	c #510D00",
"l.	c #577E0C",
"m.	c #534200",
"n.	c #6C5D00",
"o.	c #7F6300",
"p.	c #6A2C00",
"q.	c #4C4500",
"r.	c #AC7C00",
"s.	c #B37600",
"t.	c #473B00",
"u.	c #474B00",
"v.	c #8B7203",
"w.	c #864800",
"x.	c #645B00",
"y.	c #BC8200",
"z.	c #171100",
"A.	c #181500",
"B.	c #6A490A",
"C.	c #490700",
"D.	c #494A00",
"E.	c #7E6902",
". + + . . @ . + + + . . # $ . . % . . + + . . . + % . . . . + + + . % % . . + . + + + % . . . . + + + . + . + + + . . . . . + & ",
"+ . . . * = - ; ; ; > , ' ) ) ' ! ~ { ] ] ; ' ' ' ; ^ / ( ; ^ & & _ - # . . % # . . = : # < % = _ _ / - _ _ % ( [ [ ^ } { ; . + ",
". # . | / ( 1 } 2 3 ! 1 ' 4 ] } 5 ] 6 : / 6 ) ) ( / 1 4 7 8 8 8 8 8 8 8 _ [ > 1 4 ) [ ; _ 5 ] ; ^ ) ' ] ! 9 7 ^ _ 0 : / ^ 1 & + ",
". . . ' [ 8 [ ( ] a b { 2 ~ 2 ~ 2 ( 5 c 5 . ] { { ] d e : 7 ( f g 8 ] h ( i j 7 ^ / ^ 4 ' k 5 l m g n o j p q r / ( ^ / ( ; / + ",
". . l s ! ! ^ ^ ] 2 ! 3 2 ! 7 t u 7 _ v w u m x ; y t 7 z 5 : A B C 2 z 7 D E j n n F ! ; 1 G H 2 C I n n J K L M N 7 4 / s / % ",
"+ % O 7 [ ! P z v ] 4 4 y x 5 < Q 5 8 c t < d D R y % f S h j y T < 8 y y n U c n t e 3 x V k E n % . y n w W a X Y Z { y / & . ",
". Q , ` v P P Z  .] 8 / ! ~ ..+.@.i i #.. < ~ $.N 5 %.z &.2 W #.< % Z [ *.< / =.#.7 G -.#.m =.u . % 7 F g j k j ;.>.,.~ { / - . ",
"+ . g 7 5 c Z 4 '.] } ] 3 z -.+ u =.~ #.# ).c N N U !.g ^ ^ ~.#.% {.W 0 u + Q ].i ^.w t )./.=.).% ~.5 ).n 8 S [ 5 (.z { d / % . ",
". . 6 y 7 ] ( m 5 ; e Q j c = . _.i ~.-.F A ` :.Z B U e e h h o ^ h R U J !.!.A v <.R d _.i &.].B w 5 R ].z i 5 ..&.` ~ 5 - % . ",
". . # o } { } 5 x ^ ; & [ j i S S S R %.R @.@.R ` @.S h R h h h %.%.].d d d $.$.=.R g 7 5 e [ ^ _ 6 & ^ 4 ~ h 5 5 ] ! ; 5 % . + ",
". / ^ ^ ^ ^ ^ ' [ [ e ; ; g ( e g o ^ f e 8 o ( f ( : 6 !.!.0 4 0 0 6 !.!.0 0 6 0 !.0 f f 0 -.0 ; f ; ( : 6 : _ ; : l - - & Q - ",
"% 6 : ( ; [ ' 4 [ - [ } 8 ^ 0 f =.d e Q F F 6 Q u Q Q Q u Q _ ; !.!.0 6 f ) s * % 0 0 o B e y &.[.,.2 ) ! j ; & ) ] [ _ 6 6 & 6 ",
"* & 0 : / g [ Z 3 5 /.,.,.j G j  .j / @.E ~.= }.|.+ + + + + 1.2.+ + + .   1.}.+ + + e $.&.3.[.4.a p L L 5.[.6.1 _ ^ 7.8.y [ / / ",
"* l _ f ( g !  .Z k /./.5.p k k Z Z Z R U 6 + 2.                                @ + 0 ].(.3.[.p Z G M M p 9.6.2 ; 4 0.} g ] / / ",
"= : : y 5 7 o { 3 k ,.'.q q k k /.Z a.o E + +                                     + - d [.z  .[.k &.,.z { #.k W c Z j 5 [ } ( / ",
"b.( e ' c.( f ] x 2 d.p a e.k k 3. .R o 6 +                                       + % ( [.[.:.C z v v v #.# !. .h f.$.y ^ [ ; : ",
"= - 0 ! 5 { ( ! { &.(.p ,.! { k /.0.S U .                                           + - ,.[.[.J %.g.` h.d < d A n J ~.7 ' [ ' ( ",
"* = ; m m ! 7 { i.j.x '.[.3.7 k x :.8 U +                                           + - k [.[.S B B f.f.k ;.$.k.#. .i.! [ [ ) ( ",
"= - ; {.m m 8 5 G l.{.1 p 8.^ G x Z U 0 +                                           + / 7 /.k S B ,.$.w (.;.+.#.f.Z 3 c.m., ; ) ",
"% 0 0 4 m m x ..` '.G ] a 9._ G j a.g . +                                             s _ &.S [.[.[.# < P z c T !.k ! { m.m., ^ ",
"* _ > 6 n.x o.c <.<.v :.d.j j G i h B + +                                             + < &.S [.[.$.+ + F p.J + < c.m.5 1 q.' / ",
"@ & s c.G &.c :.c c r.Y i./ &.j a.w e +                                               + _ ! j Z s.*.t % B #.-.# y {.j 2 ' , ' / ",
"@ 6 l t.o.u.c.v.k v N +.~ g v r.<.8 _                                                 + 0 g c v v v $.w.a.` ].=.i z &...] 1 ^ 1 ",
"* 0 6 c.i.c.{.&.v s.N a.v ~ a.z <.- .                                                 Q 6 0 v v v <.s.v v v ` z D o 5 1 t., [ > ",
"@ _ : : m x.i.v <.v v v v v r.v z Q 8                                                   !.& v <.<.` v v v v p.T n R 5 m.' t.t.> ",
"* * !.: G i 3 v v s.g.v r.r.v v R ~.~.                                                  ( ( ].v R h.R ` v J I T w.y.2 } ' t.) [ ",
"* z.* , S i h S z S 5 h  .r.v a.= E                                                     ; ; ].v z _.f.f.% # t v y.h.S ].] ] ; ; ",
"* * A.E i i i ;.r.^. .].h r.v c e                                                       8 ; e v ` h ` h.u I @.&.w n 7 ~ ] ] ; ; ",
"* * * ] 5 5  .&.r. .^.i ].@.v y o                                                         [ ( v v ` +.+.w.A g.@.A I B i ! ^ [ / ",
"* % % [ 8 i @.s.j j z 2 h 5 v &                                                           ] ^ v v c f.J v v i &.%.t T =.i } ] - ",
". # % o B S 5 B.8 g ` ].=.S i _                                                           ] } z a.n e n @.z R f.n T C.E i k 2.= ",
". + . B C h B.g U ] 5 y o S h 6                                                           ] y 8 v #.% % < t -.k.n $.D S z S % l ",
"+ . ; ].w R B.8 U y 5 8 =.z 8                                                             8 y _ v r.S + + < =.i &.` 2 z z j . _ ",
". l 5 ~.o R 9 e U 9 5 g 8 %.^                                                               [ ^ r.v v Q < R i i i i j &.&.j + - ",
"+ l 5 ~.o R 9 E 8 5 ~ g o =.&                                                               ^ / c c z @._.z D C.n A ` &.i &.. . ",
". - 5 ~.C R R { { 3 8 : o 8 (                                                               [ [ ! 4 { x i $.n + + D i i &.i = % ",
". _ 5 ! E ~.g 8 5 - = - 5 ( ^                                                               ] [ [ G 2 ~ h  .p.+ % j j S i i ^ . ",
"# 1 ! { 8 f Q Q - % + % ] 6                                                                   ; ^ &.5 ).$.c i #.w z 2 2 2 h 2 # ",
"% / } 5 ~ ~ & ( Q 0 6 5 [ &                                                                   ; [ Z E + % z *.A z v ].7 d 5 ... ",
"= : ! 5 ~.d y 0 e 7 %.2 e ;                                                                   _ 1 k ].# i f.I ].;.#.u n y d ! . ",
"% ) 4 y E E d ] =.%.R d [ :                                                                   _ ] ! :.[.c h t @.Z u < E y d 2.% ",
"% _ ! ! S h i S 7 ].Z 5 8                                                                       [ 4 n.i.].< % _.:.&.&.R =.5 ; % ",
". & ) j  .&.i S k c  .7 ]                                                                       [ > D.q.E u u C U G k R 7 7 & . ",
"% # 1 &. .a.c c k  .5 g ;                                                                       ( ^ E.3.:.m E C S k G ! y 7 $ . ",
". & _  .v  . . .i  .; 2.:                                                                       ] & { 3.:.D.D.[.0.Z ].! =.7 * . ",
"* . } c  . . . .S y / -                                                                           % ] 0.(.i.,.[././.k { [ y * . ",
"% % ~ z c c  .{ ] ; : l                                                                           = l / s 1 [ ; 2.) : l f l * * ",
"# * k ^ [ 8 } y 8 ] /                                                                             ; ' [ ^ 1 1 ' [ ^ [ ' : . * & ",
"- - + + : l & / g ] +                                                                                       > } ;               ",
"                                                                                                                                ",
"                                                                                                                                ",
"                                                                                                                                ",
"                                                                                                                                ",
"                                                                                                                                ",
"                                                                                                                                ",
"                                                                                                                                ",
"                                                                                                                                ",
"                                                                                                                                ",
"                                                                                                                                ",
"                                                                                                                                ",
"                                                                                                                                ",
"                                                                                                                                ",
"                                                                                                                                ",
"                                                                                                                                "};
