/* XPM */
static char *_9f9a7288f524d069253bb553612accdqYNqR7KH9KoIqoLe[] = {
/* columns rows colors chars-per-pixel */
"64 64 193 2 ",
"   c #000000",
".  c #0C0100",
"X  c #060A00",
"o  c #0B0A00",
"O  c #130300",
"+  c #1C0200",
"@  c #150A00",
"#  c #1B0B00",
"$  c #071300",
"%  c #0D1100",
"&  c #141400",
"*  c #1C1300",
"=  c #171800",
"-  c #1D1900",
";  c #220400",
":  c #2A0600",
">  c #220C00",
",  c #2B0B00",
"<  c #320E00",
"1  c #231300",
"2  c #2B1500",
"3  c #241B00",
"4  c #2C1900",
"5  c #331400",
"6  c #3A1500",
"7  c #331C00",
"8  c #3B1C00",
"9  c #142A00",
"0  c #232200",
"q  c #2B2300",
"w  c #262B00",
"e  c #2B2B00",
"r  c #352100",
"t  c #3C2200",
"y  c #322B00",
"u  c #3C2900",
"i  c #3D2409",
"p  c #3D2A0D",
"a  c #293900",
"s  c #363700",
"d  c #3B3200",
"f  c #363C00",
"g  c #3E3E00",
"h  c #3C2A11",
"j  c #470700",
"k  c #480C00",
"l  c #411C00",
"z  c #501D00",
"x  c #422400",
"c  c #4A2500",
"v  c #442A00",
"b  c #4B2C00",
"n  c #41240A",
"m  c #452A0C",
"M  c #512600",
"N  c #522C00",
"B  c #592E00",
"V  c #433200",
"C  c #4C3100",
"Z  c #443C00",
"A  c #4B3C00",
"S  c #4E320E",
"D  c #533300",
"F  c #5A3500",
"G  c #553B00",
"H  c #5C3C00",
"J  c #59350D",
"K  c #472C13",
"L  c #4A2E14",
"P  c #453316",
"I  c #4C3216",
"U  c #4D351A",
"Y  c #483717",
"T  c #533C1D",
"R  c #593215",
"E  c #602909",
"W  c #613700",
"Q  c #693500",
"!  c #633C00",
"~  c #693D00",
"^  c #703E16",
"/  c #553D21",
"(  c #374500",
")  c #374900",
"_  c #394B00",
"`  c #3E6607",
"'  c #444300",
"]  c #4B4200",
"[  c #424B00",
"{  c #4E4900",
"}  c #574600",
"|  c #5D4100",
" . c #534900",
".. c #5C4C00",
"X. c #435300",
"o. c #485700",
"O. c #5B5300",
"+. c #575900",
"@. c #5D5900",
"#. c #54481D",
"$. c #644300",
"%. c #6A4400",
"&. c #664900",
"*. c #6B4B00",
"=. c #714500",
"-. c #724C00",
";. c #7C4E00",
":. c #6C5100",
">. c #645D00",
",. c #6C5D00",
"<. c #745200",
"1. c #7D5400",
"2. c #745B00",
"3. c #7D5900",
"4. c #4E6400",
"5. c #446905",
"6. c #486806",
"7. c #506100",
"8. c #577E0C",
"9. c #686C00",
"0. c #7D6200",
"q. c #6C7701",
"w. c #727601",
"e. c #7F7700",
"r. c #757D02",
"t. c #554523",
"y. c #5A4123",
"u. c #554820",
"i. c #5C442B",
"p. c #5E4B2C",
"a. c #614A2B",
"s. c #634C31",
"d. c #665134",
"f. c #6A573A",
"g. c #6D583B",
"h. c #6E5941",
"j. c #725D43",
"k. c #75654B",
"l. c #7C6C4D",
"z. c #7C6751",
"x. c #7E7057",
"c. c #815600",
"v. c #825B00",
"b. c #8A5D00",
"n. c #836100",
"m. c #8C6400",
"M. c #8E6900",
"N. c #966700",
"B. c #956700",
"V. c #946500",
"C. c #996700",
"Z. c #926900",
"A. c #966A00",
"S. c #966D00",
"D. c #956B00",
"F. c #986A00",
"G. c #996E00",
"H. c #9D6D00",
"J. c #9A6B00",
"K. c #8B7200",
"L. c #967100",
"P. c #9A7100",
"I. c #9C7100",
"U. c #9E7200",
"Y. c #9E7500",
"T. c #9C7300",
"R. c #9E7C01",
"E. c #9F7B08",
"W. c #A16E00",
"Q. c #A27200",
"!. c #A27500",
"~. c #A77600",
"^. c #A27400",
"/. c #AB7700",
"(. c #A77B01",
"). c #A27E00",
"_. c #A57D00",
"`. c #A57C00",
"'. c #AB7E01",
"]. c #AC7E00",
"[. c #A6750A",
"{. c #A47B0A",
"}. c #A97D0B",
"|. c #AA770B",
" X c #807457",
".X c #A58100",
"XX c #AA8100",
"oX c #AA8802",
"OX c #AB830A",
"+X c #A3800B",
"@X c #B78900",
"#X c #B2820E",
"$X c #B18B0B",
/* pixels */
"| C b t t 4 x 7 r r 4 1 7 1 @ . . 1 @ . # 3 # 1 > @ 2 > > 1 @ 1 > # > > # > # # 1 @ @ . . o o o @ O @ @ @ @ o . o # . @ o @ # 2 ",
"F C v *.F *.v.1.-.3.b.u -.G 1 1 * @ . 7 F c.D D v t 2 7 1 5 r v %.c.-.-.-.b.b.*.r x 4 > @ # @ . . @ 1 *.;.b.;.N.c.N 7 1 @ @ v C ",
"-.%.-.v.M.V.b.V.J.P.M.V.*.=.%.@ . @ 4 1.-.*.3.c.m.v.m.b.b.b.m.b.v.v.v.3.v.b.3.3.M.v.v.v.*.4 @ . . r N c.c.m.Z.Y.'.G.N.b.H ;.D c.",
"-.1.v.V.V.Y.N.M.P.V.!.G.b.%.H 7 o b -.1.*.=.3.;.v.V.b.m.b.m.M.H.S.S.N.XX'.(.'.Y.Q.S.Y.c.H H . @ @ b =./.H.P.Y.R..X!.(.b.b.v C v.",
"%.1.v.M.Y.A.P.L.m.A.m.Y.G.-.b 7 > v <.H ~ %.-.v.v.G.A.H.G.Q.!.T.C.Y.Q.].(.E.B.W.H.~.J.Y.b D b @ # 4 %.b.Y.oXL..XD %.S.b.v.-.t V.",
"c.c.b.Z.P.!.XXP.b.1.m.P.N.=.C 4 4 b =.H -.1.m.m.m.G.A.G.G.[.}.}.V.v.N.Q.~.<.$.(.Q.Q.W.Q.$.b x D 2 > r B A.Y.R..XD <.M.m.b.%.t $.",
"v.m.M.A.Y.OXOXm.M.J.V.A.m.=.-.x t $.&.L.{.-.v.v.b.M.V.N.H.!.|.V.$.b.b.Q.H.].~.H.Q.Q.W.Y.H b b r 5 7 v F N L.M.n.b L.S.M.m.m.3.c.",
"c.b.A.A.S.Y.A.Z.Q.[.S.V.F F =.r t -.H -.m.C H <.%.-.v.m.A.N.A.1.;.M.N.C.(.!.(.(.Q.Q.N.%.H v C b > > r b N b b -.*.m.P.V.b.V.G.1.",
"1.v.V.G.Z.S.P.Z.1.-.c.F c M ! 4 v -.~ 0.3.&.3.V.T._.v.c.c.m.c.b.J.!.C.N.C.V.!.b.Q.!.v.F F D x x 2 4 r D N b b <.1.Z.m.m.m.A.;.H ",
"*.b.M.M.S.b.D.M.F %.$.c N F 7 2 C v n.{.OX*.-.G.$X#Xv.-.b.b.V.b.G.C.m.m.b.b.m.v.b.b.$.F F $.7 r > 1 t b N ! D $.H n.;.v.;.c.=.W ",
"B -.1.c.v.v.Z.! D F M M F C 2 t D D v M.*.F D D Q.@X-.D D *.c.m.b.b.m.v.c.3.v.c.v.%.$.! $.7 8 2 4 O x N C b F 3.*.1.v.F N B W =.",
"F F %.-.*.3.~ M M N B F %.t 1 > %.v b b b C v v F N.H F C 1.v.c.v.-.! *.c.v.1.3.%.! %.-.D r 8 2 2 # 7 ~ ! N F <.-.*.D B F W ~ ;.",
"-.W F ! -.! %.N c F ! $.-.2 # > b D b b b x b b x b C b v D %.H $.%.$.H %.-.*.H -.-.-.H v 7 4 # O @ 7 W %.~ N F F W F W ! %.=.%.",
"F b ! D F =.=.-.%.! %.b v 1 > # 4   2 + x b *.D v b v v v v x C H H $.$.$.G D H F l 8 8 t r 8 2 . @ u r F %.%.b H =.W ;.=.~ ! ~ ",
"4 r 8 7 r x b r 7 x t 8 2 . . . ; .           O 2 x r x b b v v b b F F x r 8 7 7 t r x # . . O . O @ 7 2 r t D b N b t v 7 > O ",
"@ r F b b x 7 2 7 > 1 4 C # > : : , , , , > > , ; O + , ; ; ; ; ; ; ; , , > k j + , , O O . . + . @ . 1 3 7 7 7 4 > 1 1 8 8 @ # ",
"@ c F %.*.H D -.*.<.%.H <.<.x : : : ; ; @ X * m , # * # @ # ; l 2 1 % & & & n < ; ; , ; ; O ; + # 7 1 b ! H 7 r u v *.~ D x x @ ",
"8 ! %.*.-.%.H -.$.| H | -.-.*.c : +   .     8 L 7   X     . I I # X X       U I   . ; 2 , 2 ,   F =.-.%.%.=.%.=.=.-.1.;.%.;.H 8 ",
"x %.%.=.-.H H $.| ! *.=.*.*.=.-.5 ;   @     n i.q         . I n .           / L O O . .   8 c.b.v.;.=.-.=.~ ;.=.%.%.=.~ ~ ;.-.t ",
"$.-.1.1.-.%.H b C %.c.*.-.=.b.n.c 6 . +     U a.y     o   O s.K .         . i./ O       ; ! b.c.c.c.c.c.-.;.M.V.;.%.=.! ~ ! =.t ",
"~ *.v.m.-.-.$.b v v.M.v.L.G.V.D B F : >   3 a.p.y         # z.f.          O x.k..       b *.[.|.H.b.b.b.c.b.V.N.C.b.b.N.N.=.=.b ",
"%.m.L.m.v.-.D C v.M.m.m.M.M.Z.v.b ! ; O   @ i.p.q         1 k.I           1  Xk.+     O B D }.|.c.C.V.N.b.C.Y.N.N.b.C.C.N.V.*.x ",
"-.b.M.v.3.-.| $.b.M.S.Y.S.G.Y.`.N M + 2   O d.u.q         . s.n .         # k.a..   . . B v.V.H D J.N.V.~.N.H.J.C.b.b.Q.H.G.=.x ",
"%.v.v.1.1.$.-.m.N.Y.P.S.G.!.(.].M.c ; 2   * f.u.q         @ j.n .         , g.a.+ . . O b ;.V.Q.H.#X{.Q.Q.C.}.{.G.N.C.H.N.V.=.v ",
"! -.-.v.c.v.b.Y.G.Y.Y.!.Y.!.!.XX! B : 1   * s.T 1         O j.K           4 l.U ; O . > x 1.N.W.C.b.m.M.A.V.M.OXE.b.V.b.m.c.~ c ",
"*.=.*.3.v.m.!.!.G.!.Y.!.`.!._.XX%.F , 1   * p.Y 3         w f.U           > g./ +     5 b b J./.H.*.%.D 3.b.G v *.1.m.b.v.! F x ",
"*.-.;.c.A.m.P.Y.S.S.Y.Y.Y.!._.J.=.6 ; @   @ t.u w         q h.i.        X m s.a.,     , N 3.Q.H.W.N.%.D %.%.-.! $.! $.D B ! F v ",
"! ! -.b.m.b.M.b.A.S.M.m.Z.L.m.b.%.D ; @   p s.y 0 X       - h.i #   X     ; s.U O     + 4 c.C.c.$.D D C C D C u v v b F D ~ %.r ",
"*.B F F =.-.-.-.v.v.1.-.3.<.%.*.$.< ; .   i s.r #         3 s.K o         > i.P .     2 4 -.$.b b C D C v C C b x D D F W ~ v r ",
"t D D D D F D D H D F D D D $.b.c ; O .   U d.q -       X 3 d.I           > / r .     . 2 ! F D D H C C C C C b C b H ~ H r u 7 ",
"8 F D D ! =.*.-.-.-.%.F b D v.v.5 : . .   P s.e 9       X q s.n           7 i.L .       2 x b x t v v 1 v b x r 4 4 1 2 r u > @ ",
"> b F $.! %.! -.%.*.%.<.-.-.-., , ;   .   P d.e 1       o 3 d.i           / t.7 O       , 5 7 # 1 1 1 @ O @ @ # 7 > 1 1 7 r r > ",
"# 8 b x t 5 7 @ 7 7 7 7 4 2 4 8 + O . . X t.d.e &         u s.;           4 U @ +       + , . @ . . 4 1 4 t x C v | D D $.*.*.*.",
"v x D r D $.| 4 D $.F N x c 7 . O . @ o   p.d.w           I y.,           L / + +         > > > 7 x 7 D C &.$.*.*.*.<.<.<.<.H $.",
"| *.*.<.*.<.&.D -.-.*.H ! %.D . ; .       P #.e           L T n           K y.2 ,         , , x B B %.1.1.-.<.-.-.<.-.3.3.-.-.<.",
"<.-.*.*.*.1.G | *.*.$.%.-.-.D , <         s.m 0           y.y.n           / / . +       O , M ! %.%.%.! | $.<.<.3.v.3.v.m.v.<.<.",
"*.<.&.*.*.G C 3.<.-.3.&.<.<.b , : O O     J R c r 3 1 d C ^ E : + ; 1 X O S z 6 . . . O + , x ! %.~ %.! %.<.<.3.*.H 1.b.$.H n.<.",
"*.*.<.n.G C -.D.M.Y.<.<.-.3.$.> : ; O q V D W ~ ! ! B c.c.1.c.b.m.-.;.;.Q ~ j W 6 8 6 , , : c F b ! $.<.v.m.3.3.G C H m.$.H v.<.",
"<.3.3.M.v C Y.Z.J.A.N.b.*.<.D , < N W ~ Q ~ ~ ~ ~ %.;.1.3.1.1.v.1.;.=.-.v.M.c.=.v.b.-.M x N v > r C *.v.v.3.v.n.v.| Z.M.M.3.<.$.",
"m.v.M.<.u 3.S.P.Z.V.S.N.$.*.D 5 B W ~ =.=.~ ~ =.~ =.M.-.1.L.L.L.Y.Y.P.L.Y.S.G.Q.S.L.v.=.=.=.F 2 b *.<.v.b.<.3.3.3.3.M.b.v.<.*.-.",
"L.P.R.3.u P.m.S.M.Z.A.M.! $.x l ~ =.;.V.A.S.G.A.!.v.Y.S.m.<.<.M.L.L.R.L.M.L.L.T.T.M.<.&.H H 8 > b <.<.m.v.b b t v.3.n.v.&.u G $.",
"M.Y.P.M.V G 3.m.M.M.M.P.v.*.D D =.=.v.M.M.S.J._.M.Z.P.M.<.3.<.n..XP.3.n.n.T.L.P.R.M.$.H ! D 1 1 r *.| $.*.v x v G v.<.<.G C H $.",
"M.L.`.L.v A 3.S.M.m.m.P.1.$.7 ! ~ =.m.1.M.m.D C D 3.P.L.<.M.L.:.3.n.<.<.3.n.m.| n.G H $.H H 8 1 H $.| <.*.t t C <.<.$.$.*.| G $.",
"1.M.L.M.r r <.M.S.m.M.S.D 3 4 | N.m.M.-.<.A.H C *.M.n.*.&.D.M.G D <.*.<.1.3.H H F ! F ! H $.C 7 4 *.D <.3.&.H $.-.*.G &.&.H &.| ",
"-.v.1.v.b u <.L.M.M.M.%.%.1 1 7 *.*.*.$.$.M.G.P.v.-.$.D G 3.L.<.G %.$.<.D v x H D D H ! $.D x . @ x -.-.G | H G G H $.! H $.&.2.",
"$.<.-.1.H <.<.| c.<.-.D > O . 2 *.*.<.<.%.*.v.<.$.H x C b G $.H C D G C C b v ! H H *.<.G 2 # O @ > t *.| $.$.$.$.*.<.*.-.*.*.-.",
"*.<.*.%.&.v.2.D v b v 4 O . . O H $.*.-.-.*.<.<.H C v v C D H $.$.D C H %.b D *.-.*.*.*.@ . > v b . # x $.! *.$.*.*.*.H F *.$.<.",
"-.*.$.$.G *.%.H r 2 b 1 1 . # 7 2 1 1 1 t b C C | r C *.*.$.*.*.*.*.<.1.*.*.<.<.-.*.*.! @ . 4 &.C 2 @ + O @ 1 1 r x r t 7 t 7 O ",
"> x x > 1 r H F x @ @ 7 8 r ! -.H H F x 5 r 7 x b t v 7 4 7 2 $.=.$.*.! D v x t O @ # 1 > 7 t C H 4 # 4 @ # 4 r F F $.$.&.&.u . ",
"@ @ 4 1 1 7 *.! b 5 v H D -.*.-.-.*.-.<.;.<.-.<.<.;.H b b 4 1 2 t r r 1 > 2 > 2 b v r D *.*.v 1 r t :.-.&.*.*.-.&.-.&.:.:.*.&.. ",
"1 # 1 1 A *.*.<.*.<.<.<.-.-.-.*.<.<.3.$.-.*.*.*.*.*.&.$.$.H . . # 1 @ 7 r t G | %.-.<.<.*.<.&.A | :.:.*.&.:.<.2.<.3.3.M.3.:.:.1 ",
"1 1 q *.<.*.*.*.%.<.*.*.<.*.*.-.<.:.*.3.<.:.<.*.*.*.} &.$.$.b . O 1 t r D *.$.&.:.*.3.:.-.3.| *.<.3.3.n.L.L.L.M.L.n.n.3.M.M.:.G ",
"&.&.*.2.<.3.-.<.3.<.<.<.3.*.*.1.<.<.1.v.n.3.*.<.&.Z g H <.$.H . @ u -.C b <.*.H *.%.*.<.v.3.<.L.L.P.P.K.P.M.D.T.L.n.*.<.&.M.m.A ",
"&.*.*.&.M.-.<.<.3.v.<.<.2.<.3.m.b.m.q.K.L.m.v.<.<.<.Z ) ] | | O 2 D G C u <.<.$.H H H 3.n.1.3.P.M.T.R..Xn.n.K..X<.} :.<.:.m.m.| ",
"G 2.<.3.L.D.3.<.M.n.m.M.m.m.L.Z.Y.w.8.r.Y.Y.Q.!.v.3.o.s r V C O * H C G 7.6.+.*.1.3.1.3.v.G n.P.P.D.L.L.M.M.m.T.P.n.L.0.:.m.0.G ",
"u &.<.Z.L.P.G G $.| n.M.m.P.H *.<.*.1.v.Q.W.r.w.n.m.D t 7 ' u @ @ t [ X.O.7.b.M.Z.m.V.b.b.C G M.D.M.D.L.M.0.L.M.*.v.M.L.3.$.v.A ",
"r <.3.A.Y.0.v.M.t &.3.0.Y.Q.<.D *.<.*.3.Y.(.e.2.2.<.H t 4 u t O O ' A { ! *.J.v.b.Z.b.J.1.C v D.M.M.M.Z.{ '  .M.3.<.M.D.$.&.n.$.",
"3 f 2.v.0.' ..v.u &.*.A D *.B l x $.F 3.0.W.O.:.>.&.%.| r V t O & ] C C b ! ! c.m.M.M.-.&.C v $.S.n.n.3.A Z A *.G *.L.m.3.n.3.<.",
"5.` x ! *.{ 1.3.n.3.G D N B %.l <.-.,.2.3.L.'  .>.*.K.$.G C t O * 4 4 C C V A H <.( ) | H b 2 H G.<.G { 0.0.G D *.M.M.*.v.v.$.8 ",
"e Z r N &.! $.! %.&.F ! F b b...-.<.2.2.,.n.0.M.0.9.@.B b e 7 . 1 > 8 H H u v H 3.X.[ -.n.d l B `.L.*.Z f } A :.m.n.' :.<.D D 6 ",
"* y ) V V G $.! W F F %.D x ! D *.2.<.&.6 ..' ..7 7 A M r 1 @ . @ 4 8 W 4 x N &.G 6.*.$.<.d 8 D L.3.3.A d V V } :.Z ] -.V t G r ",
"@ > t b y 9 d F ~ F W b 8 6 x c 6 x x 6 | v 4 5 5 5 @ 1 # @ # @ @ @ F W b 3 & | A y 7 7 u b 6 7 A b M s 0 v u u 7 3 4 * 4 # @ # ",
"@ # > 5 $ x c b : c x 5 5 4 8 x , # > 5 4 2 5 6 7 # # # @ @ o O O . # 7 4 3 X q r q 7 , > 1 O   . . @ O . @ y a r 4 * > @ @ @ # ",
"o . . . . 8 b u 7 4 # @ @ @ # 1 # @ @ @ @ @ o # o o @ @ @ @ . . @ o . . @ o o 3 - = o # @ . . O @ O . @ O # 1 q - > @ @ @ @ @ . "
};
