/* XPM */
static char *_2941a9dffb349468125da3148b0819eLsLICOvSqH5MAbZ2[] = {
/* columns rows colors chars-per-pixel */
"64 64 181 2 ",
"   c #0C0100",
".  c #070E00",
"X  c #0D0A00",
"o  c #130500",
"O  c #160A00",
"+  c #1B0B00",
"@  c #071300",
"#  c #151300",
"$  c #1C1300",
"%  c #171800",
"&  c #210D00",
"*  c #2E0B00",
"=  c #231300",
"-  c #2B1600",
";  c #261900",
":  c #2C1900",
">  c #331500",
",  c #3A1600",
"<  c #331C00",
"1  c #3A1D00",
"2  c #142A00",
"3  c #2B2200",
"4  c #2C2800",
"5  c #362100",
"6  c #3C2200",
"7  c #332C00",
"8  c #3C2900",
"9  c #293900",
"0  c #363700",
"q  c #3C3300",
"w  c #363C00",
"e  c #3E3E00",
"r  c #411D00",
"t  c #422400",
"y  c #4A2500",
"u  c #442A00",
"i  c #4A2C00",
"p  c #512600",
"a  c #522D00",
"s  c #582E00",
"d  c #443300",
"f  c #4C3100",
"g  c #443C00",
"h  c #4B3C00",
"j  c #533400",
"k  c #5A3500",
"l  c #553B00",
"z  c #5C3C00",
"x  c #613700",
"c  c #623C00",
"v  c #683E00",
"b  c #374500",
"n  c #374900",
"m  c #394B00",
"M  c #3E6607",
"N  c #444300",
"B  c #4B4200",
"V  c #424B00",
"C  c #4E4900",
"Z  c #574600",
"A  c #5D4100",
"S  c #534900",
"D  c #5C4C00",
"F  c #435300",
"G  c #485700",
"H  c #5B5300",
"J  c #575900",
"K  c #5D5900",
"L  c #644300",
"P  c #6A4500",
"I  c #664800",
"U  c #6B4B00",
"Y  c #714600",
"T  c #724C00",
"R  c #7C4E00",
"E  c #6C5100",
"W  c #645D00",
"Q  c #6C5D00",
"!  c #745300",
"~  c #7D5400",
"^  c #745B00",
"/  c #7D5900",
"(  c #4E6400",
")  c #446905",
"_  c #486806",
"`  c #506100",
"'  c #577E0C",
"]  c #686C00",
"[  c #7D6200",
"{  c #6C7701",
"}  c #727601",
"|  c #7F7700",
" . c #757D02",
".. c #815600",
"X. c #825B00",
"o. c #8A5D00",
"O. c #836100",
"+. c #8C6400",
"@. c #8E6900",
"#. c #966700",
"$. c #956700",
"%. c #946500",
"&. c #996700",
"*. c #916800",
"=. c #936800",
"-. c #916A00",
";. c #956800",
":. c #956A00",
">. c #966A00",
",. c #976C00",
"<. c #976E00",
"1. c #956C02",
"2. c #956B00",
"3. c #986900",
"4. c #996A00",
"5. c #9E6A00",
"6. c #996C00",
"7. c #986E00",
"8. c #9B6E00",
"9. c #9E6C00",
"0. c #9C6E00",
"q. c #9A6B00",
"w. c #8C7100",
"e. c #977100",
"r. c #967100",
"t. c #997100",
"y. c #9B7100",
"u. c #997200",
"i. c #9B7200",
"p. c #9C7100",
"a. c #9C7000",
"s. c #9E7100",
"d. c #9C7200",
"f. c #9E7200",
"g. c #997400",
"h. c #9E7500",
"j. c #9F7600",
"k. c #9B7407",
"l. c #9C7400",
"z. c #9E7B00",
"x. c #9E7C00",
"c. c #9E7C01",
"v. c #9F7B08",
"b. c #A16E00",
"n. c #A17000",
"m. c #A17300",
"M. c #A37300",
"N. c #A27400",
"B. c #A17700",
"V. c #A77600",
"C. c #A67706",
"Z. c #A27400",
"A. c #AE7700",
"S. c #A87700",
"D. c #A77B01",
"F. c #A17D00",
"G. c #A27F00",
"H. c #A47C00",
"J. c #A67D00",
"K. c #A47C00",
"L. c #AB7E00",
"P. c #AA7D01",
"I. c #AC7D00",
"U. c #AA7F00",
"Y. c #A57509",
"T. c #AA770B",
"R. c #A37C09",
"E. c #A87E0B",
"W. c #AA7D0C",
"Q. c #AA7E0B",
"!. c #A68100",
"~. c #A68100",
"^. c #A88100",
"/. c #AB8200",
"(. c #AA8802",
"). c #A3800B",
"_. c #AD820C",
"`. c #AC890A",
"'. c #B78900",
"]. c #B2820E",
"[. c #B28A0D",
/* pixels */
"A f i 6 8 : 6 5 5 6 : = < $ O     ; X   + = + = = O = & & = O & & & & & + & + + = O O       X X O   O O O O     X O     X O + = ",
"k f u U k Y ..~ ! ~ X.u R j = = $ O   5 j ..j j u 6 = 1 = > 6 8 P ~ ! Y R X.X.U 5 u - = O O O     O = U R o.~ %...j 1 = + O u f ",
"R P R ..*.*.o.*.3.8.+.*.U Y P O   o - ~ R U ~ ..+...+.o.o.o.+.o.X.X.../ ..o.X...@...X.O.U : O     5 j ....+.%.j.D.0.%.+.z R j ..",
"U ~ ..@.*.d.&.@.i.@.B.8.o.P z < o i T ~ I Y ..~ X.*.o.+.o.+.@.d.2.i.;.^.^.P.I.d.m.8.m...k A   O O i P A.5.i.j.F.!.B.D.o.o.d f ..",
"L ~ ..@.j.;.i.e.+.3.+.d.8.T i < & u R z v P Y ..o.8.3.d.8.d.m.0.3.m.M.I.P.k.1.b.0.S.3.d.f a i + & = P o.m.(.g.x.j P 8.o.X.R 6 +.",
"X...o.-.i.B.^.d.o.~ +.d.;.Y f : : i U z R ~ @.@.+.2.;.0.8.C.W.W.*.X.%.M.Z.~ I D.m.b.b.m.L u u f > & 5 a 3.z.c.!.j ! @.+.o.P 8 L ",
"..+.@.2.j._._.+.@.3.*.;.+.Y T 6 6 L I -.v.T X.X.+.@.+.%.0.M.T.*.P o.o.m.5.I.Z.b.b.Z.d.d.c u i 6 < < 8 k a r.@.O.i e.2.@.+.+.~ ..",
"..+.;.;.2.j.;.-.n.T.3.*.k k Y 6 8 Y c ! O.f z ! P Y X.*.;.%.8.~ R +.%.3.D.B.D.D.m.m.&.P c u i i & & 1 i a i i T I +.i.%.o.*.3.~ ",
"~ ..*.i.-.2.e.@.~ Y ..k y a c < u T v / / I ..-.j.D...~ ..o...o.3.B.&.;.;.;.B.o.m.m...k j j u t - - 5 j a i i ~ ~ -.+.+.+.3.R z ",
"U o.+.@.2.o.-.@.k U c y p k < = f i O.).).U T 2.[._.X.R +.o.-.o.8.3.+.+.o.o.@...+.o.L k k v : 6 = & 6 i j k j I z O.~ X.R ..Y x ",
"k T ~ ~ X.X.-.v k k a a x i = t j f u +.E k k j m.'.T j j U ..@.o.o.+.X.../ X...X.v P L L < 1 - - o 8 a a i j ~ U ! X.k a s x Y ",
"k k P R U ..v a y a s k v 6 = & P i i i i f u u j %.z k f ~ ......T L P ..X.~ ~ P L L Y j 5 6 - = O 1 v c a k ! R P k a s x v R ",
"T x k c Y v P a y k c L Y : + & j j i i i u i i u i f i u j P z L P P z P U U z Y T Y A u 1 - & o o 1 x Y c a k k x x x v P v Y ",
"k y v j k Y Y Y P c P i u = & + 6 6 j u i i U j i i u u 8 i t i c z P c P l j x k t 5 1 5 1 1 = o O 8 6 k P P a k Y c Y Y P c v ",
": 1 1 < 5 6 y 6 < t 6 1 -     & - > i i f I Y j 6 8 1 t i i t 8 i u k z t 5 1 < 1 1 6 u +   o O   o + : ; 5 6 j a i i 6 u 1 & o ",
"O 5 l i i 8 1 - < & = < i O & = + O = = < 1 > 1 t u j j k x i i 5 1 u i 6 - < - : 6 : 1 + O + &   O   = ; < < < : & = = 1 1 O + ",
"O u k I U z f T U ! I k ^ T u 6 P U I f < 5 6 6 + o + O & + O 1 6 u u + O O O & - : & & + + < < O < = i v z : 5 8 u P L k t t o ",
"6 x P Y R P z Y L A z L U R P P U R L L A f f P j 8 < < + +       =   1 u u j L P x u j < v L j k Y Y P P Y P Y P R ~ R P R z 1 ",
"t P P Y Y z A L A c U Y P U Y Y ..+.~ T L I / X.X.I A k j f + O   o   L R R Y R o.%.....~ ....o...R Y R Y v R Y P v R v v R Y 8 ",
"L Y ~ ~ T P z f f P X.P R I X.+.+.+.@./ / O./ @.@.-.O.j f P 8     f a R P T R o...3.o.%.+.o.o...X.X.~ ~ T R @.%.R P Y x v v P 6 ",
"P Y X.+.R Y I f u ..@...e.2.@.e.o.@.I e.@.@.e.X.@.@.@.2.X.c 1 o & U Y R Y &.o.%.o.o.+.o.*.&.Y.T.5.o.o.o...o.%.3.&.o.+.%.%.Y Y a ",
"P O.r.+./ U j j ..@.@.@.@.-.;.B.F.w.f l F.j.e.2.;.@.+.+.e.~ < < 1 l j Y R +.o.o.o.+.o.o.o.o.W.T...&.%.%.o.&.m.%.%.o.&.%.%.%.P u ",
"T O.@.X.~ R z L +.@.;.B.8.i.B.B.R.`.f j.i.B.;.e.*.3.+.+.@.~ 6 8 f v c x x %.%.R Y %.%.&.&.%.%.z j 3.;.%.Z.&.0.3.&.+.+.b.&.0.Y u ",
"P X.X.~ ~ A T +.;.d.i.2.2.B.D.P.`.R.D.D.D.2.@.g.@.^.g.@.~ x < 1 j P x k k +.].W.T.&.&.%.5.o.+.M.5.].E.B.M.&.Q.R.5.%.3.0.&.+.Y y ",
"L Y R / ..X.o.B.i.j.i.B.d.B.Z././.Z.D.D.D.e.i.@.B.B.j.-.j z 6 6 z P k x v *.W.[._.8.3.0.d.&.%.b.&.o.+.@.3.&.w._.Y.+.@.o.+...v u ",
"Y P P / ..+.B.B.8.j.d.B.D.B.P.^.Z.^.^.^.^.2.e.2.B.D.B.@.j i > 6 j x v x R ~ k.@.Y B._.W.Q.3.5.S.b.I P j ~ X.j u U R +.o.o.x k t ",
"Y T ~ ..;.+.i.j.2.8.B.j.d.B.^.3.j.i.B.F./.j.i.D./.B.2.j j k 1 1 k L x c ~ @.Y.Y.8.m.W._.].Z.B.d.b.%.P j P I U c L c L j a c k u ",
"c c Y +.+.X.@.X.;.2.@.+.*.e.+.+.o.i.-.i.g.j.;.;.B.2.L z U z 5 : z v k k j R U z j ~ *.8 u ~ 5...L j j j f j f u u u i k k v P 1 ",
"I j k k Y Y T R X.X.! ! ~ ! L z T P ! ~ / +.~ ! k 8 y U U L & & y c k k a k i i P Y Y 6 f P P i i j j f u i f i u f j k x v u 6 ",
"t j j j j j a j z k k j j j f i j j A k z j j u t a ! j U u   o t i P c a v P j L k z k k z k j j z f f j f f i j i x v z 5 8 : ",
"6 k j j c Y U R Y R L k a j z c R U Y I R P j P P L z A 6 &     < 6 1 j k 6 1 i i i i u f i i t 6 u u = u u 8 6 - - $ - 6 8 & + ",
"& i k v v P L U P U I ! T T T ! I I I ! A 6 u 8 : : < : - = = = = < = - - : < 1 6 1 6 < < - < O = = = O o o O & : = = = < 5 5 + ",
"+ 1 i 8 6 > < + > < 5 1 - ; : k i t - < u i t f i - 1 8 z u : k L v 5 c P P U R L P k z = + = O o   - = : 8 t i i A l j P I U I ",
"i t j 6 j L z - j L k a t u 1 : O + + - Y c L L k P L T T U ! I U ! / ! ! I U / I ! U T z = & & & u < j f I L U P U ! ! ! T c I ",
"z P I ! T ! U h U ! U z v P k O   + t Y P Y P P ! ! ~ U ^ I I ! U A ! ! U I ^ ! ! U ^ P ! - o & : i R ^ ~ T ! R ! T ! / / Y T ! ",
"! U U U U ~ j A U U A P ! Y P + O P L I ! / ^ I I U I I / T U ! A l / T U ! ^ T ! U U ! I f + = = l L L A A ! ! / X.~ / +.X.! ! ",
"U ! U U U l f X.! T / I T ^ Y ; 5 P I L I U P E O.^ j x.j.g.-.! @.^ g.c.X.+.O.g.F.!.I I L P - < - j L A P ! ! / U z ! o.I z O.! ",
"U U ^ O.h f T 2.@.d.! ! ! / I : 5 l I P L ! / @.@.O.f j.x.g.z.x.r.@.g.g.F.j.e.F.x.!.@.~ A j : - u A I ! O.O./ / z f z +.L l ..~ ",
"! / / @.u j d.*.5.3.&.o.I ! l : 5 z A A / / +.@.g./.F.^.+.r.g.x.x.!.2.e.z.e.g.j.!.j.@...I j i & 5 f U X.X./ X.O.X.A 2.@.*./ ! I ",
"+.X.+.! 8 / 2.i.-.-.2.;.L E l : d P L ^ X.o.*.O.+.O.j.! ~ e.e.e.x.g.g.2.z.e.2.j.e.i.o.U P j j - i U ! X.X.~ / ~ / / -.o.X.! I U ",
"e.g.x./ u e.O.2.*.-.;.@.c P i i z U +.@.2.2.B.B.B...z.2.@.T ! @.e.e.c.w.@.e.e.g.g.-.T P z z 1 & i ! ! O.X.y i 6 O.~ / X.I u l L ",
"@.j.g.@.u Z ..@.@.@.@.i.X.I j d L O.O.+.@.8.8.D.@.-.8.@.^ / ! O.!.g.X.O.O.z.g.e.z.@.P z L j = = 5 U A P E u t i l X.! ! l f l I ",
"@.e.F.2.u h / 2.@.+.@.e.~ L 5 j +.@.+.~ @.@.j f j / g.e.! +.g.^ ..O.! T ~ O.O.L O.l l L z A 1 = z P A ! U 8 8 i ! ^ L L I A j I ",
"~ @.e.@.5 5 ! -.2.o.@.e.j ; ; A +.O.@.Y ! 2.z i I @.+.U I -.+.l f ! U ! / / A k k c k c k z f 1 : U j ! ~ P l L T U l P I z I A ",
"T X./ X.i 8 ! e.@.@.@.P P = $ 1 T U U A L @.2.g...! L j l / g.! z I P E j u u z j j c L L f u   O t U T l z z l l z L L z I I / ",
"L ! T ~ z ! ! A ..! T j & O   - I U ! / P U X.~ A z t f f j A z f j l j f i u z z z I ! l - +   O & 6 U A L L L I I ! I T I U T ",
"I ! U P I X.^ j u i u - o       k P P U T U ! U z f u d f j z P P j f z P i j I T U U U O   & u u o + r L L I L Y I L z k I P ! ",
"R P L L l P P z 6 = i = =   + 6 = = = = 6 f j f z 5 f U P P U U U U ! ! I U ~ R R I I c +   : P j = O & o O = = 1 u 6 8 1 5 1   ",
"+ t u + = 5 z j i O + < 1 6 z Y z z l 8 > 6 < 8 i 6 t 5 - < - L Y v P z j i t 8 o O & & & < 6 f l < + - O + - 1 j k L L I I 8   ",
"+ + - = = < I v y - i z j U P ! Y T Y ~ R ! T R ! R z i i ; = - 6 5 6 = & = & ; i 8 6 j I U i = 5 6 E T I U U ! I T P E U U I   ",
"= + = ; f U I ! U T ! T ! U T T ! ! ^ L U U U U U I I L L z     + = O < 1 8 j A P T ! ^ T ! I h A E U U I U ^ ^ ! / / w./ U E ; ",
"= = 3 I ^ T U U I ~ U E ! U U T ! E T ~ ! E ! U I U Z I L P i     ; 6 6 f U L P ! U ! ^ U ~ A U ^ / / O.r.r.e.@.g.O.O./ @.@.E h ",
"I I U ! ^ / T ! / ! ^ ! / U U / ! ! ~ X.O./ I R U B e z ! P z   O 8 T f i ! I L P I T ! / / ! e.2.g.i.@.g.@.r.g.e.O.U T I @.O.l ",
"U U U I @.U U ^ / ..! ! ^ T / +.+.+.{ w.g.+./ ! ! ! g n B A z o ; j j f 8 ! ! L z l z ^ +.~ / i.@.j.F.x.O.O.@.!.E A E ^ ^ O.+.A ",
"l / ! / i.-.X.~ -.X.O.@.+.+.e.;.j.} '  .d.B.d.B.../ G 0 < d j o $ z h k ` _ J U ~ ..~ ..X.j O.g.g.-.e.i.@.@.+.g.g.O.w.O.! @.[ l ",
"7 I ! @.i.2.l l L A +.@.+.d.z I ! I ~ ..M.M. .{ O.+.j 6 < b 8 O + 6 V F H ( o.@.;.+.*.o.o.d z @.-.@.-.g.@.[ r.@.T X.@.r./ L X.h ",
"5 ! / 2.D.^ O.@.8 I / / z.B.~ a U ! P ~ j.F.| [ E E z 6 : 8 6 o o g h C L P 8.X.o.@.o.;.~ f u -.@.@.-.2.C B C @./ ^ 2.-.P I O.L ",
"3 w ^ X.X.V D ..8 I E h j P a r t P k / [ m.D E ] E P A 6 u 8 o # N f f u c L ..+.@.+.R I f u P e.O.O./ h e h E j I e.O./ O./ T ",
") M 6 x T B ! / X.[ j j a a P t ! T ^ ^ / e.N H W U w.L j g 6   # < : j f d h k ^ b b L A u > z 2.! l N [ [ j j I @.@.U O./ P 1 ",
"3 g 6 j I A L c P I z x k i X.I Y ^ ^ ^ Q O.O.O.^ ] K k y 4 <   = & 1 k k q u z ~ F V T O.q 1 a F.e.U g w Z l E @.O.B E ^ j j , ",
"$ 7 m f q l L v x k k P j t v f U ^ E L , D N D 1 , h p 5 = +   + - 1 x : u y I l _ I I E q 6 j e.~ / g 0 d u S E g B R i 8 l 5 ",
"O + 6 i 6 2 q k x x k i 1 1 r y , y y > z 8 < > > > O = # O + O o + k k i ; % A B 7 1 : u i > > l i a w : d q 6 < ; ; # = + O + ",
"  + & : @ t t i * y t > - - 1 t & + & , : = > , 5 O O O O O   O     + 1 - = . 3 5 3 < * & =         O O   O 7 9 5 : $ & O o O + ",
"O         6 i 8 1 - + + + + & = + O + O O O X O X O O O O O     O       O X . ; $ % X O O     o O o   O   + = 3 $ = O O O + o   "
};
