/* XPM */
static char *_220a0c942154d1ee23dbbc6bc32f9dbLRBVHry6BUXHqXYh[] = {
/* columns rows colors chars-per-pixel */
"64 64 209 2 ",
"   c #010000",
".  c #0C0100",
"X  c #0D0A00",
"o  c #070E00",
"O  c #140400",
"+  c #1B0200",
"@  c #150A00",
"#  c #1B0B00",
"$  c #071300",
"%  c #151300",
"&  c #1C1300",
"*  c #171800",
"=  c #230100",
"-  c #2C0100",
";  c #220D00",
":  c #2C0C00",
">  c #330100",
",  c #3B0100",
"<  c #330B00",
"1  c #3B0C00",
"2  c #231300",
"3  c #2B1500",
"4  c #261900",
"5  c #2C1900",
"6  c #331400",
"7  c #3C1500",
"8  c #331B00",
"9  c #3B1C00",
"0  c #142A00",
"q  c #2B2200",
"w  c #2C2800",
"e  c #362100",
"r  c #3C2200",
"t  c #332C00",
"y  c #3C2900",
"u  c #3C3300",
"i  c #363C00",
"p  c #3A3B00",
"a  c #293900",
"s  c #420000",
"d  c #4D0200",
"f  c #410B00",
"g  c #4D0900",
"h  c #520200",
"j  c #530C00",
"k  c #5B0A00",
"l  c #441400",
"z  c #491400",
"x  c #431B00",
"c  c #4C1C00",
"v  c #531400",
"b  c #591400",
"n  c #541B00",
"m  c #5B1B00",
"M  c #600900",
"N  c #770000",
"B  c #631400",
"V  c #6A1500",
"C  c #641B00",
"Z  c #691D00",
"A  c #721D00",
"S  c #432400",
"D  c #4B2400",
"F  c #432A00",
"G  c #4B2C00",
"H  c #532300",
"J  c #5A2300",
"K  c #522C00",
"L  c #5B2C00",
"P  c #443300",
"I  c #4C3200",
"U  c #443C00",
"Y  c #4B3C00",
"T  c #533300",
"R  c #5B3400",
"E  c #543B00",
"W  c #5C3C00",
"Q  c #622300",
"!  c #692400",
"~  c #632B00",
"^  c #6B2E00",
"/  c #732300",
"(  c #7C2300",
")  c #742A00",
"_  c #7D2B00",
"`  c #623500",
"'  c #693500",
"]  c #633C00",
"[  c #693C00",
"{  c #733400",
"}  c #7D3300",
"|  c #743C00",
" . c #7D3C00",
".. c #374500",
"X. c #384A00",
"o. c #3E6607",
"O. c #444300",
"+. c #4B4200",
"@. c #424B00",
"#. c #4E4900",
"$. c #5D4100",
"%. c #5C4C00",
"&. c #554800",
"*. c #435300",
"=. c #485700",
"-. c #5A5700",
";. c #644300",
":. c #6A4400",
">. c #664900",
",. c #6B4B00",
"<. c #724400",
"1. c #7D4500",
"2. c #724B00",
"3. c #7D4C00",
"4. c #6C5100",
"5. c #665D00",
"6. c #745200",
"7. c #7D5400",
"8. c #745B00",
"9. c #7D5A00",
"0. c #446905",
"q. c #4B6603",
"w. c #506100",
"e. c #577E0C",
"r. c #7D6200",
"t. c #727601",
"y. c #787B01",
"u. c #6A7201",
"i. c #8B0000",
"p. c #9B0000",
"a. c #A40000",
"s. c #B90000",
"d. c #822C00",
"f. c #892C00",
"g. c #833300",
"h. c #8B3500",
"j. c #823D00",
"k. c #8B3C00",
"l. c #923600",
"z. c #933C00",
"x. c #983E00",
"c. c #D60004",
"v. c #E60001",
"b. c #824400",
"n. c #8C4200",
"m. c #814B00",
"M. c #8B4B00",
"N. c #934300",
"B. c #9D4400",
"V. c #954A00",
"C. c #9C4C00",
"Z. c #825400",
"A. c #8B5400",
"S. c #825B00",
"D. c #8B5C00",
"F. c #945300",
"G. c #9C5400",
"H. c #935B00",
"J. c #9B5B00",
"K. c #A34D00",
"L. c #A45300",
"P. c #AC5500",
"I. c #A45C00",
"U. c #AA5C00",
"Y. c #B35C00",
"T. c #836100",
"R. c #8C6400",
"E. c #8E6900",
"W. c #966700",
"Q. c #936400",
"!. c #9B6400",
"~. c #926900",
"^. c #966A00",
"/. c #966D00",
"(. c #946B00",
"). c #986A00",
"_. c #996E00",
"`. c #9B6B00",
"'. c #8B7200",
"]. c #967100",
"[. c #9A7100",
"{. c #9D7100",
"}. c #9E7500",
"|. c #9C7300",
" X c #9E7C01",
".X c #A36400",
"XX c #AC6400",
"oX c #A46B00",
"OX c #AC6900",
"+X c #AC6809",
"@X c #B16400",
"#X c #B26900",
"$X c #BD650B",
"%X c #BC6B0C",
"&X c #A27200",
"*X c #A27500",
"=X c #A47400",
"-X c #AC7500",
";X c #A47C00",
":X c #AB7E00",
">X c #A47709",
",X c #AC730B",
"<X c #A97D0A",
"1X c #A47B08",
"2X c #B57200",
"3X c #B47908",
"4X c #AB830B",
"5X c #A78303",
"6X c #B28506",
/* pixels */
"$.I G r r 8 r 8 e e 5 2 8 2 @ . . 2 X . # 2 # 2 ; # 2 ; ; 2 @ ; ; ; ; ; # # # ; 2 @ O . . X X X @ X # @ @ # X X X O . @ X O # 2 ",
"R I F ,.E 2.Z.9.2.9.S.F 2.E 3 2 & # . e E Z.T I F r 3 8 2 3 e F :.9.2.2.2.R.S.,.8 F 5 2 @ # # . . O 2 :.3.D.7.D.Z.T 9 2 @ @ F T ",
"2.:.2.S.R.W.D.~.).|.R.~.,.<.;.@ . O 3 7.2.2.9.Z.D.S.R.D.D.D.R.D.S.S.S.9.S.D.S.Z.~.S.S.S.,.6 #   O e T 9.Z.R.(.}.:X_.W.D.E 3.I S.",
"2.7.S.~.(.{.).R.|.~.*X_.D.:.W 8 X I 2.7.,.<.9.7.S.~.D.R.R.R.~.{.(./.W.:X:X1X:X|.&X_.{.S.E E . # O F <.-X`.|.}. X5X*X;XD.D.G I S.",
":.7.S.R.}.(.|./.R.W.R.{._.2.G 8 ; F 6.W ] :.2.S.D./.(._._.&X=X_.(.{.&X:X:X|./.oX_.-X(.{.I K G # # 3 :.H.{.5X].;XT >./.D.S.2.r R.",
"S.Z.D.~.|.*X5X{.D.9.R.{.(.<.I 5 3 I <.W 6.7.R.R.R._.)._._.>X<X<X~.S.!.=X*X6.>.1X*XoX&X&X:.F F T 3 ; 8 T _. X X5XT 7.R.R.D.:.F ;.",
"Z.R.~.(.}.4X4XR.R.).E.(.R.<.2.r r ;.:.].1X2.S.S.R.R.R.~.oX=X,X~.:.D.D.&X`.:X;XoX{.*X&X_.W F G e 8 8 F R K ].E.r.G ]./.R.R.R.7.Z.",
"9.D.(.(./.}.(.~.>X>X/.~.R R <.r r 2.W 2.T.T W 6.:.2.S.~.(.Q.).7.3.R.W.).-X*X-X*X&X&X!.:.W G G G ; ; e G I K G 2.;.E.|.(.D.R._.9.",
"7.S.E.|.R./.|.~.7.2.7.R D K ] 5 F 2.] 9.9.>.Z.~._.;XZ.Z.S.D.Z.D.).=X!.!.!.Q.*XD.&X*XS.R R I F F 3 3 9 T K G F 7.7.(.R.R.R.(.3.W ",
",.D.R.R./.R.(.R.R <.] D K L 8 4 G F T.4X4X,.2.`.6X6XS.2.D.D.!.D.`.`.Q.D.D.D.D.D.D.D.[ R R :.6 e 2 2 r G T ` T :.W T.7.S.3.Z.<.` ",
"L 2.7.9.S.S.W.] T R K K R I 3 r E T F R.,.W E T >X6X2.E E <.Z.D.H.D.Q.A.Z.Z.D.Z.D.[ :.;.;.8 e 3 3 O F K I G E 9.,.7.S.R K K ] <.",
"R R :.3.:.9.] K G K L R :.r 2 ; ;.G G P G I F S R !.' R T m.A.Z.A.2.[ :.Z.D.m.m.[ [ :.<.R r x 3 3 O 8 ] ] K R 6.6.:.T K R ' :.2.",
"6.R R ] 2.] :.K D R ] ] 2.3 # ; T T G G G G G G D G L K D L <.[ [ :.[ ] <.1.<.] 1.2.2.] D 9 6 # O O 9 ] <.] T R T ` R ' [ :.[ :.",
"E K ] T R 2.<.2.:.;.:.K F 2 ; # r r T G G G <.R G G F D D K D K [ ' | [ | R R [ ` c 7 x x 9 9 3 O # y e R :.:.G W <.] 2.<.:.] :.",
"3 e 9 8 8 r G r 8 r e e 3 . . ; 3 6 G G T ;.<.K S c x D H K D D H H ' ' D x l 7 l x S G ; O + # O O # 8 4 8 r T G K G r G 8 ; O ",
"@ 9 E G G F 8 3 8 ; 2 8 G @ ; 2 # O 3 3 6 9 7 x S D ` L ~ ' J L x c H J c l l 7 7 c 7 7 : # = : O O . 3 4 e 8 8 5 ; 2 3 8 9 @ @ ",
"@ G E :.:.] T 2.,.6.:.W 6.6.F e :.2.:.G 9 9 x S : + - - : : - l c H H < < : - < 7 l < < = + O 6 = 8 6 G ] W 8 e y F :.[ E S S O ",
"8 ] :.2.2.:.W ,.;.$.W $.2.2.:.:.2.2.:.;.] T T <.R D 7 x < - = = = 1 - c m J ~ | | ' H x + 6 ` R R <.<.:.:.<.:.<.2.2.9.3.[ 7.W 9 ",
"F :.:.:.2.W W ;.$.] :.2.,.2.2.2.Z.R.7.2.] 2.Z.A.A.<.[ ' ~ L < > - - 1 ) n.K.Y.#X#X+XF.H + L x 1.A.m.1.2.<.[ 3.2.[ [ 3.] :.3.2.r ",
":.<.7.7.2.:.W I I ,.S.:.2.:.S.D.D.~.Q.Z.D.A.Z.Q.!.J.A.^ ~  .n - > ! ! g.L.Y.Y.Y.XXn.n < ' M.1.A.A.A.Z.m.3.3.Q.R.7.:.<.W [ [ :.r ",
":.,.S.R.2.2.;.G F S.E.S././.R.|.D.R.:.).H.Q.!.H.J.J.J..XF.{ b > f ) } k.B.Y.K.C.v > !  .J.J.+X,X.XA.D.A.Z.Q.Q.!.).D.D.~.~.2.<.K ",
";.R.].R.S.2.E I S.R.R.R.R.~.(.*X;X(.G W -X&X!..X!.J.F.G.I.V.v b b / / h./ B B , j J ) M.F.F.3X%XA.!.H.!.H.!.&XW.W.D.!.~.Q.Q.:.F ",
"2.R.R.S.9.2.W ;.D.E.(.*X|.|.}.*X1X4XT oXoX=X!..XI.I.J.G.L.n.b j / g.( V V V B k.) C.k.U.I.I.J.' L .X!.J.=X!.oXW.!.R.H.&X`.).<.F ",
":.S.S.7.7.;.2.R.W.|.|.(./.*X-X:X6X>X-X-X-X!.J..XG.2XXXL.n._ b > , f.A V V V b $X$XL.L.L.XXV.G.OX.X3X,X=XoX!.4X>X_.Q.(.oXW.R.<.F ",
"] 2.2.S.Z.S.S.*X_.*X|.*X&X*X*X:X6X=X=X2X-X`..XJ.OX#XXXL.! d.B - s h.d f.k B d.K.$XP.Y.U.Y.I.I.XXI.J.H.H.!.!.(.<X>XD.R.Q.D.Z.] F ",
":.<.:.9.S.R.*X*X_.*X}.*X;X*X:X:X=X-X:X:X2X.X.X.X@X#X@XL./ / s - , - > > > s A d.l.Y.$X%X%XI.I.#X.X<.<.R Z.A.E F ,.7.D.D.S.] R F ",
",.2.9.Z.(.R.|.{./.(. X}.{.*X:X`.&XoX=X=X3XoXoX#X2X@XU./ / ( d - .   =     - k ( h.P.$X%X%X#XOXXXXXJ.<.L <.:.2.] ] ;.;.E T ] R F ",
"] ] 2.D.R.R.R.D.~.|.R.R.~.].D.D.D._.!.oXoX.X.XU.@XI.} _ h.d.B k =   -     i.= d A A L.Q J M.U.M.| L L R K L T F G F G R L [ :.9 ",
":.T R R 2.2.2.2.S.S.7.2.9.2.:.] 3.:.3.m.Z.H.M.b.^ m ! h.h.d.h s c.v.    a.c.p.+ k ( A b Q  . .L K L R K D K G G F K E W ] [ F r ",
"9 E T K T R T T W R R T E T K G R L ' ` ' ~ ~ J J ! n./ k.Z s s c.a.    N s.= . > + , Z ) ) ^ ~ ' ' K K T K K G K G R [ E e y 5 ",
"9 W T E ] ,.:.2.2.2.;.R K T ] ] 3.<.3.<.3.| ^ |  .} _ } B g - , - - O   > - + + > = = = , Q ~ n D D D 6 D G F e 5 5 2 2 e y 2 # ",
"; G R ] ] :.;.2.:.,.,.6.2.2.2.2.:.:.:.3.[ c H H z z v z j g = , k h h M k B k k B b g - f z z - < < < + + + # ; 6 2 2 3 8 e 8 # ",
"# 9 G F S 6 8 # 8 8 8 8 3 3 6 R D D 6 7 H H n ~ J z v b _ C j ( f.f.V f.f.f.z.l.d.g.) ) f 1 1 - + + 6 < 6 S S G G ;.E T ;.,.,.,.",
"G r T r I ;.$.4 T ;.R K S G 8 8 # ; ; 7 1.' | { ^  .g.k.k.k.N.h.h.x.x.z.z.h.h.B.h.k.j.b.{ 1 < < : H 7 R K :.] 2.:.,.6.6.6.2.;.;.",
"$.;.,.4.2.2.,.I 2.2.,.W ] :.R # O ; D <.<.1.| 1.M.M.M.j.M.h.g.k.h.d.k.x.k.h.k.N.n.j.M. .b.f - < 7 K 3.9.9.2.6.2.2.6.6.9.9.2.,.6.",
"6.2.,.,.,.9.E $.,.,.;.:.6.2.:.# + [ ] <.7.m.3.<.| 1. . .V.j.k.k.} ) V.k.k.N.k.n.n.j.j.b. .L - 7 < ' :.] ] :.2.3.9.S.7.9.R.S.6.2.",
",.6.,.,.,.E I 9.6.6.9.>.6.6.2.5 9 :.2.[ :.2.| 1.H.3.~ OX@XOXL.N.G.N.U.XXB.K.G.U.#X2X . .{ | 7 l 6 R [ ] :.2.7.9.,.W 6.D.,.W S.6.",
",.,.6.T.E I 2./.E.{.6.6.6.7.;.5 e R :.:.[ m.Z.!.J.A.L OXOX.XOXOXU.L.XXXX@XXXI.#XOX2XJ.b.[ ' 7 6 D ] :.6.D.R.9.9.W I $.R.;.E S.6.",
"6.9.9.E.F I }.R.`.(.W.D.,.6.E 5 8 ] ] ] Z.Z.D.J.oX:XOX2XJ.I.XX#X#X#XI.U.XXXXOXOX2XOXJ.M.| ~ H : x T <.Z.S.Z.S.S.S.$.~.R.R.9.6.:.",
"E.S.E.6.y 9./.|.W.~./.W.;.2.E 5 G :.;.9.S.D.!.D.H.H.oXm.M..X.X.XOXOX.XI.XXI.I.XX.X.XF.1.| ` R 6 K 2.3.S.D.6.9.9.9.9.(.D.T.6.,.,.",
"].]. X9.y |.T._.~.(./.E.$.;.G G W 2.R.Q.!.).*X=X=XA.oX!.J.1.b.J..X.XOX.XJ..X.XOX.X!.1.| ' ' x : K 2.2.D.S.G G r T.9.9.T.>.F E ;.",
"E.}.}.E.P E S.R.E.E.R.|.S.,.E P ;.T.S.Q.~.!.`.2XW.!..X!.3.A.3.H.-X.XM.H.H.oX.XoXoX!.[ [ [ R 6 : r 2.;.,.,.F F F W 9.6.6.E I E ;.",
"E.].;X].F I 9./.R.R.R.].7.;.e T R.R.R.9.R.D.R K L Z.oX`.3.H.&X3.A.H.m.1.m.H.D.[ A.` ' | ` ] 7 : W :.] 2.,.S r I 6.6.$.;.>.$.E ;.",
"7.E.].R.e e 6.E./.R.E._.T 4 4 $.T.R.R.2.7.W.] K 2.Q.D.<.:.!.H.R L 3.1.3.m.Z.' ' ` [ ` ] ` [ T 8 6 2.E 2.9.;.W ;.2.,.W >.>.W >.;.",
"6.S.7.S.P F 4.|.R.R.E.:.:.2 2 8 ,.,.,.;.;.R.).{.D.3.] L ` Z.`.3.R <.| 2.L H H ` L R [ ] :.K D O @ S <.2.E W W E E W ;.;.W ;.>.8.",
"$.6.2.7.W 6.6.$.9.6.2.E # O . 3 ,.,.6.7.:.2.S.7.] ] F K G R [ ] K L R R K K G ] ' ] <.2.R 6 ; O # ; r ,.$.;.;.;.>.:.6.,.2.,.2.2.",
":.6.,.:.>.S.6.T F K G 5 O . O . E :.,.,.2.2.6.2.W G G G K R ] ] :.R K ` <.K L <.2.<.2.,.# O ; F F O # S ;.;.,.;.,.,.>.W R :.;.6.",
"2.:.;.;.E ,.,.W e 2 G 2 2 . # e 3 ; 2 2 r G I T W r G 2.;.:.2.2.2.<.2.9.<.,.7.3.2.2.:.] # . 3 :.T 3 @ # O O 2 2 8 F r r 8 r 8 X ",
"; F F # 2 e W R F # # 8 9 e ] 2.W W R S 8 9 8 F G S F 8 6 8 3 [ 2.[ | ] K G c F O O ; : ; 8 r I E 8 # 3 O ; 3 8 R E ;.>.>.>.y . ",
"# # 3 2 2 8 :.] G 3 G W T ,.,.2.2.,.2.6.2.6.2.6.6.3.] G G 5 3 3 r 8 r 3 ; 3 ; 3 G F 8 E :.,.G 2 e r 4.2.>.,.,.6.,.2.;.4.,.,.>.. ",
"2 # 2 2 Y 2.>.6.:.6.6.4.2.2.2.,.6.6.9.;.2.,.,.,.,.:.;.;.;.W . . ; 2 # 8 e F E W ,.2.6.8.2.6.>.Y $.4.,.,.>.4.6.8.6.9.9.E.9.,.4.4 ",
"2 2 q ,.6.,.,.,.,.6.,.,.8.,.,.2.6.6.,.9.6.4.6.,.,.,.&.,.;.;.G O O 2 r e I 2.>.;.6.,.9.4.,.9.$.,.6.9.9.T.].].].R.].T.T.9.E.E.4.Y ",
">.>.,.8.6.9.6.6.9.6.6.6.7.,.,.9.6.6.9.S.T.9.,.6.>.O.p $.6.;.E . # y 2.I G 6.,.;.:.,.2.6.S.9.6.].]. X].E.|.E.]. X].T.,.6.>.E.E.E ",
",.,.,.>.E.,.2.6.9.T.6.6.8.6.7.R.T.R.u.'.|.R.9.6.6.6.U ..+.;.;.O 2 T E I y 6.4.;.W E $.6.T.9.9.|.E.|.5X XT.T.E. X4.$.4.6.6.T.T.&.",
"E 6.6.9.].E.S.6.E.T.R.E.R.R.].~.}.t.e.y.{.{.&X*XS.9.=.i 8 P I . ; W I E q.q.-.,.7.Z.9.Z.S.T T.|.].~.].].E.E.R. X|.T.].r.6.R.T.E ",
"t ,.6.(.|.|.E E ;.$.T.R.R.{.W ,.4.,.7.S.&X=Xy.y.S.R.T r 8 O.y @ # e @.*.%.q.R.R.~.R.~.D.D.I E E.~.E./.|.E.r.'.(.,.T.E.].9.$.S.E ",
"e 6.9.(.;X8.9.E.r >.9.r.}.&X6.K ,.6.:.9.{.;X'.5.6.4.W r 8 t r O @ O.Y #.] ,./.S.D.~.R.(.9.I F ~.R.E.E.(.#.+.#.E.9.6.].~.;.>.T.;.",
"5 p 8.S.T.@.%.S.y >.,.Y E :.K x D ;.R 9.r.&X%.5.5.4.:.$.r F r O % U I I G ] ;.Z.R.E.R.2.,.I F ;.|.T.T.9.Y O.Y >.E ,.].T.S.S.9.6.",
"o.o.r ] 2.+.7.9.S.r.T T K K :.F 6.,.8.8.9.|.@.%.5.4.'.;.E I e O & 5 5 T T P Y W 6...X.$.W G 6 W ].6.E +.r.r.T T ,.E.E.,.T.9.;.7 ",
"w U e K >.;.;.] :.>.W ] R G S.>.6.6.8.8.5.T.S.T.8.u.-.T G w 8 . 2 ; 8 W W t F W 7.*.@.2.T.t S K *X].,.U i &.E 4.R.T.O.4.6.E T 7 ",
"& w X.Y P E W [ ' R R ;.T F ] I >.8.6.;.6 %.O.%.8 7 Y H e & # . # 3 7 ] 5 F G :.&.0.:.;.6.u 9 T ].7.9.U p F P %.6.O.+.6.P r E e ",
"# # 9 G t 0 u R ] R ` G 7 9 S D 7 D F 6 $.F 3 6 6 6 # & # # % @ O # W R D 4 % $.Y t 8 8 y G 6 8 Y K K i 5 u t y 5 4 4 & 4 # # # ",
"@ # ; 5 $ S F D : D F 6 6 3 9 S ; # ; 6 8 3 6 7 8 # % @ # @ X O . . # 8 3 2 $ q e q 8 : ; 2 . . . . @ O . O t a e 4 & ; @ O @ # ",
"O . . . . 9 G u 8 3 # # @ # # 2 # @ # O @ @ X @ o @ # @ O @ . . O X . . @ X o 4 & * X # @ . . O @ O . @ O # 2 q 2 2 O @ @ # O . "
};
